<svg width="39" height="39" viewBox="0 0 39 39" fill="none" xmlns="http://www.w3.org/2000/svg">
<path d="M21.5 10.7249V17.1399H27.9601V21.4499H21.5V27.8648H17.2606V21.4499H10.8005V17.1399H17.2606V10.7249H21.5ZM8.68075 29.8695C11.6416 32.8096 15.2081 34.2797 19.3803 34.2797C23.5524 34.2797 27.0853 32.8096 29.9789 29.8695C32.9398 26.9293 34.4202 23.3877 34.4202 19.2448C34.4202 15.1018 32.9398 11.5936 29.9789 8.72028C27.0853 5.78011 23.5524 4.31002 19.3803 4.31002C15.2081 4.31002 11.6416 5.78011 8.68075 8.72028C5.78717 11.5936 4.34038 15.1018 4.34038 19.2448C4.34038 23.3877 5.78717 26.9293 8.68075 29.8695ZM5.65258 5.71329C9.42097 1.90443 13.9969 0 19.3803 0C24.7637 0 29.3396 1.90443 33.108 5.71329C36.8764 9.45532 38.7606 13.9658 38.7606 19.2448C38.7606 24.5237 36.8764 29.0676 33.108 32.8765C29.3396 36.6185 24.7637 38.4895 19.3803 38.4895C13.9969 38.4895 9.42097 36.6185 5.65258 32.8765C1.88419 29.0676 0 24.5237 0 19.2448C0 13.9658 1.88419 9.45532 5.65258 5.71329Z" fill="#ECAC37"/>
</svg>
