<svg width="17" height="17" viewBox="0 0 17 17" fill="none" xmlns="http://www.w3.org/2000/svg">
<path d="M16.7507 0.107346C16.9471 0.250203 17.0274 0.440679 16.9917 0.678774L14.706 14.3931C14.6762 14.5657 14.581 14.6996 14.4203 14.7948C14.337 14.8425 14.2447 14.8663 14.1435 14.8663C14.078 14.8663 14.0066 14.8514 13.9292 14.8216L9.22386 12.902L6.56315 15.8216C6.45601 15.9466 6.31613 16.0091 6.14351 16.0091C6.06017 16.0091 5.99172 15.9972 5.93815 15.9734C5.82506 15.9318 5.73577 15.8603 5.67029 15.7591C5.60482 15.6639 5.57208 15.5568 5.57208 15.4377V11.402L1.35779 9.67877C1.13755 9.59544 1.01851 9.43175 1.00065 9.1877C0.982793 8.95556 1.07803 8.77997 1.28636 8.66092L16.1435 0.0894885C16.3518 -0.0355115 16.5542 -0.0295589 16.7507 0.107346ZM13.6971 13.4913L15.6703 1.67877L2.86672 9.0627L5.86672 10.2859L13.5721 4.58056L9.30422 11.6966L13.6971 13.4913Z" fill="white"/>
</svg>
