<svg width="40" height="40" viewBox="0 0 40 40" fill="none" xmlns="http://www.w3.org/2000/svg">
<path d="M0 20C0 31.0457 8.95431 40 20 40C31.0457 40 40 31.0457 40 20C40 8.95431 31.0457 0 20 0C8.95431 0 0 8.95431 0 20Z" fill="white"/>
<path d="M23.6074 21L24.0074 18.1044H21.5068V16.2253C21.5068 15.4331 21.8561 14.6609 22.976 14.6609H24.1128V12.1956C24.1128 12.1956 23.0812 12 22.0949 12C20.0355 12 18.6895 13.3869 18.6895 15.8975V18.1044H16.4004V21H18.6895V28H21.5068V21H23.6074Z" fill="#121212"/>
</svg>
