<svg width="20" height="16" viewBox="0 0 20 16" fill="none" xmlns="http://www.w3.org/2000/svg">
<path d="M0 0.508789H20V15.5088H0V0.508789Z" fill="#012169"/>
<path d="M0 0.508789V2.18457L17.7637 15.5088H20V13.833L2.23633 0.508789H0ZM20 0.508789V2.18457L2.23633 15.5088H0V13.833L17.7637 0.508789H20Z" fill="white"/>
<path d="M8.33398 0.508789V15.5088H11.666V0.508789H8.33398ZM0 5.50977V10.5078H20V5.50977H0Z" fill="white"/>
<path d="M0 6.50879V9.50879H20V6.50879H0ZM9 0.508789V15.5088H11V0.508789H9ZM0 15.5088L6.66602 10.5078H8.1582L1.49023 15.5088H0ZM0 0.508789L6.66602 5.50977H5.17578L0 1.62793V0.508789ZM11.8438 5.50977L18.5098 0.508789H20L13.334 5.50977H11.8438ZM20 15.5088L13.334 10.5078H14.8242L20 14.3896V15.5088Z" fill="#C8102E"/>
</svg>
