<svg width="20" height="16" viewBox="0 0 20 16" fill="none" xmlns="http://www.w3.org/2000/svg">
<path d="M0 0.509277H20V15.5093H0V0.509277Z" fill="#012169"/>
<path d="M0 0.509277V2.18506L17.7637 15.5093H20V13.8335L2.23633 0.509277H0ZM20 0.509277V2.18506L2.23633 15.5093H0V13.8335L17.7637 0.509277H20Z" fill="white"/>
<path d="M8.33398 0.509277V15.5093H11.666V0.509277H8.33398ZM0 5.51025V10.5083H20V5.51025H0Z" fill="white"/>
<path d="M0 6.50928V9.50928H20V6.50928H0ZM9 0.509277V15.5093H11V0.509277H9ZM0 15.5093L6.66602 10.5083H8.1582L1.49023 15.5093H0ZM0 0.509277L6.66602 5.51025H5.17578L0 1.62842V0.509277ZM11.8438 5.51025L18.5098 0.509277H20L13.334 5.51025H11.8438ZM20 15.5093L13.334 10.5083H14.8242L20 14.3901V15.5093Z" fill="#C8102E"/>
</svg>
