<svg width="63" height="80" viewBox="0 0 63 80" fill="none" xmlns="http://www.w3.org/2000/svg">
<path d="M3.40943 63.9403C3.28606 65.1417 3.06124 66.8815 2.18475 67.7595C1.56987 68.3755 4.46521 68.9065 4.71322 68.9806C5.95906 69.3532 7.2049 69.7257 8.45074 70.0982" stroke="#37B853" stroke-width="3" stroke-linecap="round"/>
<path d="M60.2472 11.0049C61.1953 15.2083 59.5185 20.4487 58.512 24.4974C57.2316 29.6478 55.243 33.9653 51.3432 37.6585C45.4309 43.2577 35.2977 47.5564 27.034 47.3469C16.7138 47.0853 14.7649 28.5706 25.7764 31.1273C31.069 32.3561 29.94 40.5455 29.4514 44.549C28.6228 51.3374 25.9711 56.8296 20.6372 61.17C15.2731 65.535 9.25194 65.9729 3.03156 68.2643" stroke="#37B853" stroke-width="3" stroke-linecap="round"/>
</svg>
