<svg width="15" height="16" viewBox="0 0 15 16" fill="none" xmlns="http://www.w3.org/2000/svg">
<path d="M7.50033 0.666992C6.04993 0.666992 4.63211 1.09708 3.42615 1.90288C2.22019 2.70868 1.28025 3.85399 0.725212 5.19398C0.17017 6.53397 0.0249451 8.00846 0.307903 9.43099C0.590862 10.8535 1.28929 12.1602 2.31488 13.1858C3.34046 14.2114 4.64714 14.9098 6.06967 15.1928C7.49219 15.4757 8.96668 15.3305 10.3067 14.7754C11.6467 14.2204 12.792 13.2805 13.5978 12.0745C14.4036 10.8685 14.8337 9.45072 14.8337 8.00033C14.8314 6.05611 14.058 4.19218 12.6832 2.81741C11.3085 1.44264 9.44455 0.669286 7.50033 0.666992ZM7.50033 14.0003C6.31364 14.0003 5.1536 13.6484 4.16691 12.9891C3.18021 12.3299 2.41118 11.3928 1.95705 10.2964C1.50293 9.20007 1.38411 7.99367 1.61562 6.82978C1.84713 5.6659 2.41857 4.5968 3.25769 3.75769C4.0968 2.91857 5.1659 2.34713 6.32979 2.11561C7.49367 1.8841 8.70007 2.00292 9.79643 2.45705C10.8928 2.91117 11.8299 3.68021 12.4891 4.6669C13.1484 5.6536 13.5003 6.81364 13.5003 8.00033C13.4984 9.59103 12.8656 11.116 11.7408 12.2408C10.616 13.3656 9.09103 13.9984 7.50033 14.0003Z" fill="#64666C"/>
<path d="M8.16439 7.72563V4.00163C8.16439 3.82482 8.09415 3.65525 7.96913 3.53022C7.8441 3.4052 7.67453 3.33496 7.49772 3.33496C7.32091 3.33496 7.15134 3.4052 7.02632 3.53022C6.90129 3.65525 6.83105 3.82482 6.83105 4.00163V8.00163C6.83109 8.17842 6.90136 8.34797 7.02639 8.47296L9.02639 10.473C9.15212 10.5944 9.32052 10.6616 9.49532 10.6601C9.67012 10.6586 9.83733 10.5884 9.96093 10.4648C10.0845 10.3412 10.1547 10.174 10.1562 9.99923C10.1577 9.82443 10.0905 9.65603 9.96905 9.5303L8.16439 7.72563Z" fill="#64666C"/>
</svg>
