<svg width="24" height="24" viewBox="0 0 24 24" fill="none" xmlns="http://www.w3.org/2000/svg">
<path fill-rule="evenodd" clip-rule="evenodd" d="M8.30769 5.14286C8.30769 5.82484 8.01594 6.4789 7.4966 6.96113C6.97727 7.44337 6.27291 7.71429 5.53846 7.71429C4.80402 7.71429 4.09965 7.44337 3.58032 6.96113C3.06099 6.4789 2.76923 5.82484 2.76923 5.14286C2.76923 4.46087 3.06099 3.80682 3.58032 3.32458C4.09965 2.84235 4.80402 2.57143 5.53846 2.57143C6.27291 2.57143 6.97727 2.84235 7.4966 3.32458C8.01594 3.80682 8.30769 4.46087 8.30769 5.14286ZM11.0769 5.14286C11.0769 6.50683 10.4934 7.81493 9.45475 8.77941C8.41608 9.74388 7.00735 10.2857 5.53846 10.2857C4.06957 10.2857 2.66084 9.74388 1.62218 8.77941C0.583515 7.81493 0 6.50683 0 5.14286C0 3.77889 0.583515 2.47078 1.62218 1.50631C2.66084 0.541835 4.06957 0 5.53846 0C7.00735 0 8.41608 0.541835 9.45475 1.50631C10.4934 2.47078 11.0769 3.77889 11.0769 5.14286ZM18.4615 14.5714C19.196 14.5714 19.9004 14.3005 20.4197 13.8183C20.939 13.336 21.2308 12.682 21.2308 12C21.2308 11.318 20.939 10.664 20.4197 10.1817C19.9004 9.69949 19.196 9.42857 18.4615 9.42857C17.7271 9.42857 17.0227 9.69949 16.5034 10.1817C15.9841 10.664 15.6923 11.318 15.6923 12C15.6923 12.682 15.9841 13.336 16.5034 13.8183C17.0227 14.3005 17.7271 14.5714 18.4615 14.5714ZM18.4615 17.1429C19.9304 17.1429 21.3392 16.601 22.3778 15.6365C23.4165 14.6721 24 13.364 24 12C24 10.636 23.4165 9.32792 22.3778 8.36345C21.3392 7.39898 19.9304 6.85714 18.4615 6.85714C16.9926 6.85714 15.5839 7.39898 14.5453 8.36345C13.5066 9.32792 12.9231 10.636 12.9231 12C12.9231 13.364 13.5066 14.6721 14.5453 15.6365C15.5839 16.601 16.9926 17.1429 18.4615 17.1429ZM5.53846 21.4286C6.27291 21.4286 6.97727 21.1577 7.4966 20.6754C8.01594 20.1932 8.30769 19.5391 8.30769 18.8571C8.30769 18.1752 8.01594 17.5211 7.4966 17.0389C6.97727 16.5566 6.27291 16.2857 5.53846 16.2857C4.80402 16.2857 4.09965 16.5566 3.58032 17.0389C3.06099 17.5211 2.76923 18.1752 2.76923 18.8571C2.76923 19.5391 3.06099 20.1932 3.58032 20.6754C4.09965 21.1577 4.80402 21.4286 5.53846 21.4286ZM5.53846 24C7.00735 24 8.41608 23.4582 9.45475 22.4937C10.4934 21.5292 11.0769 20.2211 11.0769 18.8571C11.0769 17.4932 10.4934 16.1851 9.45475 15.2206C8.41608 14.2561 7.00735 13.7143 5.53846 13.7143C4.06957 13.7143 2.66084 14.2561 1.62218 15.2206C0.583515 16.1851 0 17.4932 0 18.8571C0 20.2211 0.583515 21.5292 1.62218 22.4937C2.66084 23.4582 4.06957 24 5.53846 24Z" fill="#545454"/>
</svg>
