<svg width="60" height="60" viewBox="0 0 60 60" fill="none" xmlns="http://www.w3.org/2000/svg">
<path fill-rule="evenodd" clip-rule="evenodd" d="M42.0769 33.4048H32.8774C33.6365 31.1269 34.04 29.2097 34.1065 27.5749C34.2634 23.7183 32.4425 22.1919 30.8873 21.5897C30.8223 21.5642 30.7546 21.546 30.6855 21.5356C29.4805 21.3452 29.0515 21.9121 28.7672 22.5528L28.7299 22.6368C28.6883 22.7288 28.6611 22.8267 28.6493 22.927C28.2647 26.217 26.8599 29.304 24.6318 31.755V50.1344C24.8804 50.2254 25.1342 50.3011 25.392 50.3612C25.4618 50.3776 25.5332 50.3865 25.6049 50.3875C26.375 50.3957 27.293 50.3999 28.3517 50.3999C29.4078 50.3999 30.6035 50.3956 31.9306 50.3875H40.5972C41.1039 50.3876 41.6016 50.2531 42.0392 49.9977C42.4769 49.7423 42.8389 49.3752 43.0882 48.934C43.3374 48.4928 43.465 47.9934 43.4579 47.4867C43.4507 46.98 43.3091 46.4843 43.0475 46.0503C43.6259 45.6121 44.0159 44.9702 44.1383 44.255C44.2607 43.5397 44.1063 42.8047 43.7065 42.1991C44.2678 41.7231 44.6238 41.0489 44.7004 40.3169C44.7769 39.5849 44.5681 38.8516 44.1174 38.2697C44.5127 37.8679 44.7803 37.3581 44.8867 36.8046C44.9931 36.2511 44.9336 35.6784 44.7156 35.1586C44.4975 34.6388 44.1307 34.1951 43.6613 33.8831C43.1918 33.5711 42.6406 33.4049 42.0769 33.4052V33.4048ZM22.7085 16.9049C22.6502 16.7254 22.5416 16.5664 22.3956 16.4468C22.2496 16.3273 22.0723 16.2521 21.8849 16.2304L19.1975 15.9212L18.0736 13.4625C17.9955 13.2906 17.8696 13.1447 17.7108 13.0425C17.552 12.9402 17.3671 12.8858 17.1783 12.8858C16.9894 12.8858 16.8045 12.9402 16.6457 13.0425C16.4869 13.1447 16.361 13.2906 16.2829 13.4625L15.159 15.9212L12.4717 16.2304C12.2842 16.2519 12.1069 16.3269 11.9608 16.4463C11.8147 16.5658 11.7061 16.7247 11.6478 16.9042C11.5895 17.0837 11.584 17.2762 11.632 17.4587C11.6799 17.6412 11.7794 17.806 11.9184 17.9336L13.9103 19.763L13.3741 22.414C13.337 22.5988 13.3538 22.7904 13.4224 22.966C13.4909 23.1416 13.6084 23.2939 13.7609 23.4047C13.9134 23.5155 14.0945 23.5803 14.2827 23.5913C14.4709 23.6023 14.6583 23.5591 14.8227 23.4668L17.178 22.137L19.5338 23.4668C19.6981 23.5595 19.8857 23.6031 20.074 23.5923C20.2624 23.5815 20.4437 23.5168 20.5963 23.4058C20.749 23.2949 20.8665 23.1425 20.935 22.9666C21.0034 22.7908 21.0199 22.599 20.9824 22.4141L20.4462 19.763L22.4381 17.9337C22.577 17.8062 22.6763 17.6414 22.7242 17.459C22.7722 17.2767 22.7667 17.0844 22.7084 16.905L22.7085 16.9049ZM48.3546 16.9049C48.4129 17.0843 48.4185 17.2766 48.3706 17.4589C48.3227 17.6413 48.2234 17.8061 48.0845 17.9336L46.0924 19.763L46.6287 22.414C46.6661 22.5989 46.6496 22.7907 46.5812 22.9665C46.5127 23.1423 46.3952 23.2948 46.2426 23.4057C46.09 23.5166 45.9087 23.5813 45.7203 23.5922C45.532 23.603 45.3445 23.5594 45.1801 23.4667L42.8248 22.1369L40.4693 23.4667C40.305 23.5595 40.1175 23.603 39.9291 23.5922C39.7408 23.5814 39.5595 23.5167 39.4068 23.4058C39.2542 23.2948 39.1367 23.1424 39.0682 22.9666C38.9998 22.7907 38.9833 22.5989 39.0207 22.414L39.557 19.763L37.5651 17.9336C37.426 17.806 37.3266 17.6412 37.2786 17.4587C37.2306 17.2762 37.2361 17.0837 37.2944 16.9042C37.3527 16.7247 37.4614 16.5658 37.6075 16.4463C37.7536 16.3269 37.9309 16.2519 38.1184 16.2304L40.8049 15.9212L41.9292 13.4625C42.0073 13.2906 42.1332 13.1448 42.292 13.0425C42.4508 12.9402 42.6356 12.8858 42.8245 12.8858C43.0133 12.8858 43.1982 12.9402 43.3569 13.0425C43.5157 13.1448 43.6416 13.2906 43.7197 13.4625L44.8441 15.9212L47.5307 16.2304C47.7182 16.2521 47.8955 16.3272 48.0415 16.4468C48.1875 16.5664 48.2961 16.7254 48.3543 16.9049H48.3546ZM36.6275 13.215C36.5692 13.0353 36.4606 12.876 36.3146 12.756C36.1686 12.636 35.9914 12.5603 35.8037 12.5378L32.3441 12.143L30.8966 8.97314C30.8176 8.80214 30.6913 8.65732 30.5326 8.55583C30.374 8.45433 30.1896 8.40039 30.0012 8.40039C29.8129 8.40039 29.6285 8.45433 29.4698 8.55583C29.3111 8.65732 29.1848 8.80214 29.1059 8.97314L27.6582 12.1428L24.1987 12.5375C24.0113 12.5595 23.8342 12.6348 23.6884 12.7544C23.5425 12.874 23.434 13.033 23.3757 13.2124C23.3175 13.3918 23.3119 13.5842 23.3597 13.7667C23.4075 13.9491 23.5067 14.1141 23.6454 14.2419L26.2102 16.5981L25.5197 20.0106C25.4823 20.1955 25.4989 20.3872 25.5674 20.563C25.6359 20.7387 25.7534 20.8911 25.906 21.0019C26.0587 21.1128 26.2399 21.1775 26.4282 21.1883C26.6165 21.1991 26.804 21.1555 26.9683 21.0628L30.0012 19.3521L33.0341 21.063C33.1984 21.1557 33.3858 21.1992 33.5741 21.1884C33.7624 21.1776 33.9436 21.1129 34.0962 21.002C34.2488 20.8912 34.3664 20.7388 34.4349 20.5631C34.5034 20.3874 34.5199 20.1957 34.4826 20.0108L33.7922 16.5982L36.3571 14.2419C36.4959 14.1147 36.5952 13.9502 36.6432 13.7681C36.6912 13.586 36.6858 13.3939 36.6278 13.2148L36.6275 13.215ZM22.663 33.5829C22.4897 33.3073 22.2493 33.0801 21.9643 32.9226C21.6793 32.7651 21.3591 32.6824 21.0335 32.6823H14.2389C13.7281 32.6827 13.2384 32.8858 12.8771 33.2469C12.5159 33.608 12.3127 34.0977 12.3121 34.6085V48.4726C12.3125 48.9836 12.5156 49.4735 12.8769 49.8349C13.2381 50.1963 13.7279 50.3997 14.2389 50.4004H21.0335C21.359 50.4002 21.6792 50.3176 21.9641 50.1602C22.2491 50.0028 22.4895 49.7758 22.663 49.5004V33.5829ZM14.8019 36.2982C14.8019 36.0371 14.9056 35.7867 15.0902 35.6021C15.2748 35.4175 15.5252 35.3138 15.7863 35.3138H16.5087C16.7698 35.3138 17.0202 35.4175 17.2048 35.6021C17.3894 35.7867 17.4931 36.0371 17.4931 36.2982C17.4931 36.5593 17.3894 36.8096 17.2048 36.9942C17.0202 37.1789 16.7698 37.2826 16.5087 37.2826H15.7863C15.6571 37.2826 15.529 37.2571 15.4096 37.2077C15.2902 37.1582 15.1816 37.0857 15.0902 36.9943C14.9988 36.9029 14.9263 36.7943 14.8768 36.6749C14.8273 36.5555 14.8019 36.4275 14.8019 36.2982Z" fill="white"/>
</svg>
