<svg width="100" height="100" viewBox="0 0 100 100" fill="none" xmlns="http://www.w3.org/2000/svg">
<rect width="100" height="100" rx="50" fill="white"/>
<path d="M48.7687 46.2567C51.0319 46.2567 52.8667 44.4213 52.8667 42.1572C52.8667 39.893 51.0319 38.0576 48.7687 38.0576C46.5055 38.0576 44.6708 39.893 44.6708 42.1572C44.6708 44.4213 46.5055 46.2567 48.7687 46.2567Z" stroke="#227699" stroke-width="2" stroke-miterlimit="10" stroke-linecap="round" stroke-linejoin="round"/>
<path d="M42.2317 55.7063V52.8161C42.2317 47.8966 45.2232 46.2568 48.1327 46.2568H49.4441C52.3331 46.2568 55.3451 47.8966 55.3451 52.8161V55.7063" stroke="#227699" stroke-width="2" stroke-miterlimit="10" stroke-linecap="round" stroke-linejoin="round"/>
<path d="M31.9458 38.0986C31.8024 38.0781 31.659 38.0576 31.5156 38.0576C29.2617 38.0576 27.4381 39.9024 27.4381 42.1572C27.4381 43.838 28.4626 45.2933 29.8969 45.9287" stroke="#227699" stroke-width="2" stroke-miterlimit="10" stroke-linecap="round" stroke-linejoin="round"/>
<path d="M32.7657 46.0514C34.4254 45.5184 35.6343 44.0016 35.6343 42.1568C35.6343 41.0705 35.204 40.1071 34.5279 39.3691" stroke="#227699" stroke-width="2" stroke-miterlimit="10" stroke-linecap="round" stroke-linejoin="round"/>
<path d="M38.1136 55.7063V52.8161C38.1136 48.2246 35.4704 46.4823 32.7657 46.2773" stroke="#227699" stroke-width="2" stroke-miterlimit="10" stroke-linecap="round" stroke-linejoin="round"/>
<path d="M29.8973 46.3184C27.3566 46.6668 25.0002 48.4501 25.0002 52.8161V55.7063" stroke="#227699" stroke-width="2" stroke-miterlimit="10" stroke-linecap="round" stroke-linejoin="round"/>
<path d="M64.7708 46.0514C63.1111 45.5184 61.9022 44.0016 61.9022 42.1568C61.9022 41.0705 62.3325 40.1071 63.0087 39.3691" stroke="#227699" stroke-width="2" stroke-miterlimit="10" stroke-linecap="round" stroke-linejoin="round"/>
<path d="M59.4231 55.7063V52.8161C59.4231 48.2246 62.0663 46.4823 64.7709 46.2773" stroke="#227699" stroke-width="2" stroke-miterlimit="10" stroke-linecap="round" stroke-linejoin="round"/>
<path d="M67.7421 46.257C67.7421 46.2364 67.7421 46.1953 67.7421 46.1748" stroke="#227699" stroke-width="2" stroke-miterlimit="10" stroke-linecap="round" stroke-linejoin="round"/>
<path d="M31.9467 38.0986C30.7378 40.4559 30.0001 43.1001 29.8772 45.9287" stroke="#227699" stroke-width="2" stroke-miterlimit="10" stroke-linecap="round" stroke-linejoin="round"/>
<path d="M65.631 38.2422C66.8399 40.6404 67.5365 43.3256 67.6185 46.1748" stroke="#227699" stroke-width="2" stroke-miterlimit="10" stroke-linecap="round" stroke-linejoin="round"/>
<path d="M31.9869 38.0984C35.1014 32.0106 41.4532 27.8291 48.768 27.8291C56.1443 27.8291 62.5371 32.0721 65.631 38.2419" stroke="#227699" stroke-width="2" stroke-miterlimit="10" stroke-linecap="round" stroke-linejoin="round"/>
<path d="M29.9172 46.3183C29.9172 46.4413 29.9172 46.5643 29.9172 46.6873C29.9172 57.1001 38.359 65.5451 48.7678 65.5451C59.1765 65.5451 67.6183 57.1001 67.6183 46.6873C67.6183 46.5438 67.6183 46.4003 67.5978 46.2568" stroke="#227699" stroke-width="2" stroke-miterlimit="10" stroke-linecap="round" stroke-linejoin="round"/>
<path d="M29.8772 46.3182C29.8772 46.1747 29.8772 46.0517 29.8977 45.9082" stroke="#227699" stroke-width="2" stroke-miterlimit="10" stroke-linecap="round" stroke-linejoin="round"/>
<path d="M32.7457 46.2772C32.7457 46.1952 32.7457 46.1133 32.7662 46.0518" stroke="#227699" stroke-width="2" stroke-miterlimit="10" stroke-linecap="round" stroke-linejoin="round"/>
<path d="M60.4673 61.7529L70.077 71.3253C71.2039 72.4526 73.0275 72.4526 74.1544 71.3253C75.2814 70.1979 75.2814 68.3941 74.1544 67.2667L64.5447 57.6943" stroke="#227699" stroke-width="2" stroke-miterlimit="10" stroke-linecap="round" stroke-linejoin="round"/>
<path d="M65.5909 38.0986C65.7344 38.0781 65.8778 38.0576 66.0212 38.0576C68.2751 38.0576 70.0987 39.9024 70.0987 42.1572C70.0987 43.838 69.0742 45.2933 67.6399 45.9287" stroke="#227699" stroke-width="2" stroke-miterlimit="10" stroke-linecap="round" stroke-linejoin="round"/>
<path d="M67.6394 46.3184C70.1801 46.6668 72.5364 48.4501 72.5364 52.8161V55.7063" stroke="#227699" stroke-width="2" stroke-miterlimit="10" stroke-linecap="round" stroke-linejoin="round"/>
</svg>
