<svg width="100" height="100" viewBox="0 0 100 100" fill="none" xmlns="http://www.w3.org/2000/svg">
<rect width="100" height="100" rx="50" fill="white"/>
<path d="M48.7688 46.2567C51.0321 46.2567 52.8668 44.4213 52.8668 42.1572C52.8668 39.893 51.0321 38.0576 48.7688 38.0576C46.5056 38.0576 44.6709 39.893 44.6709 42.1572C44.6709 44.4213 46.5056 46.2567 48.7688 46.2567Z" stroke="#227699" stroke-width="2" stroke-miterlimit="10" stroke-linecap="round" stroke-linejoin="round"/>
<path d="M42.2319 55.7063V52.8161C42.2319 47.8966 45.2234 46.2568 48.133 46.2568H49.4443C52.3334 46.2568 55.3453 47.8966 55.3453 52.8161V55.7063" stroke="#227699" stroke-width="2" stroke-miterlimit="10" stroke-linecap="round" stroke-linejoin="round"/>
<path d="M31.9462 38.0986C31.8028 38.0781 31.6594 38.0576 31.5159 38.0576C29.2621 38.0576 27.4385 39.9024 27.4385 42.1572C27.4385 43.838 28.463 45.2933 29.8972 45.9287" stroke="#227699" stroke-width="2" stroke-miterlimit="10" stroke-linecap="round" stroke-linejoin="round"/>
<path d="M32.7661 46.0514C34.4258 45.5184 35.6347 44.0016 35.6347 42.1568C35.6347 41.0705 35.2044 40.1071 34.5282 39.3691" stroke="#227699" stroke-width="2" stroke-miterlimit="10" stroke-linecap="round" stroke-linejoin="round"/>
<path d="M38.1139 55.7063V52.8161C38.1139 48.2246 35.4708 46.4823 32.7661 46.2773" stroke="#227699" stroke-width="2" stroke-miterlimit="10" stroke-linecap="round" stroke-linejoin="round"/>
<path d="M29.8975 46.3184C27.3568 46.6668 25.0005 48.4501 25.0005 52.8161V55.7063" stroke="#227699" stroke-width="2" stroke-miterlimit="10" stroke-linecap="round" stroke-linejoin="round"/>
<path d="M64.7709 46.0514C63.1112 45.5184 61.9023 44.0016 61.9023 42.1568C61.9023 41.0705 62.3326 40.1071 63.0088 39.3691" stroke="#227699" stroke-width="2" stroke-miterlimit="10" stroke-linecap="round" stroke-linejoin="round"/>
<path d="M59.4233 55.7063V52.8161C59.4233 48.2246 62.0665 46.4823 64.7711 46.2773" stroke="#227699" stroke-width="2" stroke-miterlimit="10" stroke-linecap="round" stroke-linejoin="round"/>
<path d="M67.7422 46.257C67.7422 46.2364 67.7422 46.1953 67.7422 46.1748" stroke="#227699" stroke-width="2" stroke-miterlimit="10" stroke-linecap="round" stroke-linejoin="round"/>
<path d="M31.9469 38.0986C30.738 40.4559 30.0004 43.1001 29.8774 45.9287" stroke="#227699" stroke-width="2" stroke-miterlimit="10" stroke-linecap="round" stroke-linejoin="round"/>
<path d="M65.6313 38.2422C66.8402 40.6404 67.5369 43.3256 67.6189 46.1748" stroke="#227699" stroke-width="2" stroke-miterlimit="10" stroke-linecap="round" stroke-linejoin="round"/>
<path d="M31.9873 38.0984C35.1017 32.0106 41.4535 27.8291 48.7684 27.8291C56.1447 27.8291 62.5374 32.0721 65.6314 38.2419" stroke="#227699" stroke-width="2" stroke-miterlimit="10" stroke-linecap="round" stroke-linejoin="round"/>
<path d="M29.9175 46.3183C29.9175 46.4413 29.9175 46.5643 29.9175 46.6873C29.9175 57.1001 38.3592 65.5451 48.768 65.5451C59.1768 65.5451 67.6185 57.1001 67.6185 46.6873C67.6185 46.5438 67.6185 46.4003 67.598 46.2568" stroke="#227699" stroke-width="2" stroke-miterlimit="10" stroke-linecap="round" stroke-linejoin="round"/>
<path d="M29.8774 46.3182C29.8774 46.1747 29.8774 46.0517 29.8979 45.9082" stroke="#227699" stroke-width="2" stroke-miterlimit="10" stroke-linecap="round" stroke-linejoin="round"/>
<path d="M32.7461 46.2772C32.7461 46.1952 32.7461 46.1133 32.7666 46.0518" stroke="#227699" stroke-width="2" stroke-miterlimit="10" stroke-linecap="round" stroke-linejoin="round"/>
<path d="M60.4673 61.7529L70.077 71.3253C71.2039 72.4526 73.0275 72.4526 74.1544 71.3253C75.2814 70.1979 75.2814 68.3941 74.1544 67.2667L64.5447 57.6943" stroke="#227699" stroke-width="2" stroke-miterlimit="10" stroke-linecap="round" stroke-linejoin="round"/>
<path d="M65.5913 38.0986C65.7347 38.0781 65.8782 38.0576 66.0216 38.0576C68.2755 38.0576 70.099 39.9024 70.099 42.1572C70.099 43.838 69.0746 45.2933 67.6403 45.9287" stroke="#227699" stroke-width="2" stroke-miterlimit="10" stroke-linecap="round" stroke-linejoin="round"/>
<path d="M67.6396 46.3184C70.1804 46.6668 72.5367 48.4501 72.5367 52.8161V55.7063" stroke="#227699" stroke-width="2" stroke-miterlimit="10" stroke-linecap="round" stroke-linejoin="round"/>
</svg>
