<svg width="100" height="100" viewBox="0 0 100 100" fill="none" xmlns="http://www.w3.org/2000/svg">
<rect width="100" height="100" rx="50" fill="white"/>
<g clip-path="url(#clip0_73_569)">
<path fill-rule="evenodd" clip-rule="evenodd" d="M27.2105 77.9478L70.0316 79.9862C71.7018 80.0657 73.3351 79.4785 74.5722 78.3538C75.8094 77.229 76.5491 75.6589 76.6286 73.9887L79.0267 23.611C79.0426 23.277 78.9252 22.9503 78.7002 22.7029C78.4753 22.4555 78.1613 22.3075 77.8272 22.2916L35.0061 20.2532C34.6721 20.2373 34.3455 20.3548 34.098 20.5797C33.8506 20.8047 33.7026 21.1187 33.6867 21.4527L32.8474 39.0849L24.0313 38.6652C23.6973 38.6493 23.3706 38.7668 23.1232 38.9917C22.8758 39.2167 22.7278 39.5307 22.7119 39.8647L21.2131 71.3508C21.1336 73.0209 21.7208 74.6543 22.8455 75.8914C23.9703 77.1286 25.5404 77.8683 27.2105 77.9478ZM33.8075 71.9503L36.1457 22.8321L76.4479 24.7505L74.1097 73.8688C74.062 74.8709 73.6182 75.813 72.8759 76.4878C72.1336 77.1627 71.1536 77.515 70.1515 77.4673L32.3405 75.6674C33.2227 74.6221 33.738 73.3164 33.8075 71.9503ZM25.1708 41.2441L32.7275 41.6038L31.2886 71.8304C31.2409 72.8325 30.7971 73.7746 30.0548 74.4494C29.3125 75.1243 28.3325 75.4766 27.3304 75.4289C26.3284 75.3812 25.3863 74.9374 24.7114 74.1951C24.0366 73.4528 23.6843 72.4728 23.732 71.4707L25.1708 41.2441ZM70.4513 71.1701C70.4672 70.8361 70.3498 70.5094 70.1248 70.262C69.8999 70.0145 69.5858 69.8666 69.2518 69.8507L57.9168 69.3111C57.5828 69.2952 57.2561 69.4127 57.0087 69.6376C56.7613 69.8626 56.6133 70.1766 56.5974 70.5106C56.5815 70.8446 56.699 71.1713 56.9239 71.4187C57.1489 71.6662 57.4629 71.8141 57.7969 71.83L69.1319 72.3696C69.4659 72.3855 69.7926 72.268 70.04 72.0431C70.2875 71.8181 70.4354 71.5041 70.4513 71.1701ZM65.5511 50.3803C65.6582 50.5059 65.7894 50.6086 65.937 50.6825C66.0846 50.7563 66.2456 50.7998 66.4103 50.8102C66.575 50.8206 66.7401 50.7979 66.8958 50.7433C67.0516 50.6887 67.1948 50.6033 67.3169 50.4923C67.439 50.3813 67.5376 50.2469 67.6067 50.097C67.6759 49.9471 67.7142 49.7849 67.7195 49.62C67.7247 49.455 67.6968 49.2907 67.6373 49.1367C67.5778 48.9828 67.488 48.8424 67.3731 48.7238L60.2902 40.9328C60.2592 40.8674 60.222 40.8052 60.1791 40.747C59.9457 40.507 59.6299 40.3647 59.2955 40.3488C58.9611 40.3328 58.6332 40.4445 58.3781 40.6613C58.3302 40.7154 58.2873 40.7738 58.2499 40.8357L52.7216 45.8615L50.0947 42.9721C50.0638 42.9067 50.0266 42.8444 49.9836 42.7863C49.8707 42.6319 49.7214 42.5079 49.5489 42.4253C49.3765 42.3427 49.1862 42.3041 48.9952 42.3129C48.8042 42.3217 48.6183 42.3776 48.4542 42.4757C48.29 42.5737 48.1527 42.7109 48.0544 42.8749L42.9022 47.5589C42.7766 47.6661 42.6738 47.7973 42.6 47.9449C42.5262 48.0925 42.4827 48.2534 42.4723 48.4181C42.4618 48.5828 42.4846 48.748 42.5392 48.9037C42.5938 49.0595 42.6792 49.2026 42.7902 49.3248C42.9012 49.4469 43.0356 49.5454 43.1855 49.6146C43.3353 49.6838 43.4976 49.7221 43.6625 49.7273C43.8275 49.7326 43.9918 49.7046 44.1457 49.6452C44.2997 49.5857 44.4401 49.4958 44.5587 49.381L48.9575 45.3819L50.8995 47.518L50.4588 47.9187C50.3333 48.0258 50.2305 48.157 50.1567 48.3046C50.0828 48.4522 50.0394 48.6131 50.0289 48.7779C50.0185 48.9426 50.0413 49.1077 50.0959 49.2634C50.1505 49.4192 50.2358 49.5624 50.3468 49.6845C50.4579 49.8066 50.5923 49.9052 50.7421 49.9743C50.892 50.0435 51.0542 50.0818 51.2192 50.0871C51.3841 50.0923 51.5485 50.0644 51.7024 50.0049C51.8563 49.9454 51.9968 49.8556 52.1153 49.7407L59.153 43.3427L65.5511 50.3803ZM50.9597 56.357L39.6247 55.8174C39.2907 55.8015 38.964 55.9189 38.7166 56.1439C38.4691 56.3688 38.3212 56.6829 38.3053 57.0169C38.2894 57.3509 38.4068 57.6776 38.6318 57.925C38.8567 58.1724 39.1708 58.3204 39.5048 58.3363L50.8398 58.8759C51.1738 58.8918 51.5005 58.7743 51.7479 58.5494C51.9953 58.3244 52.1433 58.0104 52.1592 57.6764C52.1751 57.3423 52.0576 57.0157 51.8327 56.7682C51.6077 56.5208 51.2937 56.3729 50.9597 56.357ZM50.6599 62.6542L39.3249 62.1146C38.9909 62.0987 38.6642 62.2162 38.4168 62.4411C38.1694 62.6661 38.0214 62.9801 38.0055 63.3141C37.9896 63.6481 38.1071 63.9748 38.332 64.2222C38.557 64.4697 38.871 64.6176 39.205 64.6335L50.54 65.1731C50.874 65.189 51.2007 65.0715 51.4481 64.8466C51.6956 64.6216 51.8435 64.3076 51.8594 63.9736C51.8753 63.6396 51.7579 63.3129 51.5329 63.0655C51.308 62.818 50.9939 62.6701 50.6599 62.6542ZM50.3602 68.9514L39.0252 68.4118C38.6911 68.3959 38.3645 68.5134 38.117 68.7383C37.8696 68.9633 37.7217 69.2773 37.7058 69.6113C37.6899 69.9453 37.8073 70.272 38.0323 70.5194C38.2572 70.7669 38.5712 70.9148 38.9053 70.9307L50.2402 71.4703C50.5743 71.4862 50.9009 71.3688 51.1484 71.1438C51.3958 70.9189 51.5437 70.6048 51.5596 70.2708C51.5755 69.9368 51.4581 69.6101 51.2332 69.3627C51.0082 69.1152 50.6942 68.9673 50.3602 68.9514ZM50.5096 39.2945C50.4918 39.6682 50.5852 40.0387 50.778 40.3592C50.9708 40.6798 51.2543 40.936 51.5927 41.0954C51.9311 41.2548 52.3092 41.3103 52.6791 41.2549C53.049 41.1994 53.3942 41.0355 53.671 40.7839C53.9478 40.5323 54.1437 40.2042 54.2341 39.8412C54.3244 39.4782 54.3051 39.0966 54.1785 38.7446C54.052 38.3926 53.8239 38.086 53.5231 37.8636C53.2223 37.6413 52.8623 37.5131 52.4887 37.4953C51.9877 37.4714 51.4977 37.6476 51.1265 37.985C50.7554 38.3225 50.5334 38.7935 50.5096 39.2945ZM47.061 32.1877L64.6932 33.0271C65.0272 33.043 65.3539 32.9255 65.6013 32.7006C65.8488 32.4756 65.9967 32.1616 66.0126 31.8276C66.0285 31.4936 65.9111 31.1669 65.6861 30.9195C65.4612 30.672 65.1471 30.5241 64.8131 30.5082L47.1809 29.6688C46.8469 29.6529 46.5202 29.7704 46.2728 29.9953C46.0254 30.2203 45.8774 30.5343 45.8615 30.8683C45.8456 31.2024 45.9631 31.529 46.188 31.7765C46.413 32.0239 46.727 32.1718 47.061 32.1877ZM69.5516 63.5535L58.2166 63.0139C57.8826 62.998 57.5559 63.1154 57.3085 63.3404C57.061 63.5653 56.9131 63.8794 56.8972 64.2134C56.8813 64.5474 56.9987 64.8741 57.2237 65.1215C57.4486 65.369 57.7626 65.5169 58.0967 65.5328L69.4317 66.0724C69.7657 66.0883 70.0923 65.9708 70.3398 65.7459C70.5872 65.5209 70.7352 65.2069 70.7511 64.8729C70.767 64.5388 70.6495 64.2122 70.4246 63.9648C70.1996 63.7173 69.8856 63.5694 69.5516 63.5535ZM57.1969 57.9162C57.181 58.2502 57.2985 58.5769 57.5234 58.8243C57.7484 59.0717 58.0624 59.2197 58.3964 59.2356L69.7314 59.7751C70.0655 59.791 70.3921 59.6736 70.6395 59.4487C70.887 59.2237 71.0349 58.9097 71.0508 58.5757C71.0667 58.2416 70.9493 57.915 70.7243 57.6675C70.4994 57.4201 70.1854 57.2722 69.8513 57.2563L58.5163 56.7167C58.1823 56.7008 57.8557 56.8182 57.6082 57.0432C57.3608 57.2681 57.2128 57.5822 57.1969 57.9162Z" fill="#227699"/>
</g>
<defs>
<clipPath id="clip0_73_569">
<rect width="58" height="58" fill="white" transform="matrix(1 0 0 -1 21 79)"/>
</clipPath>
</defs>
</svg>
