<svg width="100" height="100" viewBox="0 0 100 100" fill="none" xmlns="http://www.w3.org/2000/svg">
<rect width="100" height="100" rx="50" fill="white"/>
<path d="M73.75 61.875C73.1201 61.875 72.516 61.6248 72.0706 61.1794C71.6252 60.734 71.375 60.1299 71.375 59.5V52.375H52.375V59.5C52.375 60.1299 52.1248 60.734 51.6794 61.1794C51.234 61.6248 50.6299 61.875 50 61.875C49.3701 61.875 48.766 61.6248 48.3206 61.1794C47.8752 60.734 47.625 60.1299 47.625 59.5V52.375H28.625V59.5C28.625 60.1299 28.3748 60.734 27.9294 61.1794C27.484 61.6248 26.8799 61.875 26.25 61.875C25.6201 61.875 25.016 61.6248 24.5706 61.1794C24.1252 60.734 23.875 60.1299 23.875 59.5V52.375C23.875 51.1152 24.3754 49.907 25.2662 49.0162C26.157 48.1254 27.3652 47.625 28.625 47.625H47.625V42.875C47.625 42.2451 47.8752 41.641 48.3206 41.1956C48.766 40.7502 49.3701 40.5 50 40.5C50.6299 40.5 51.234 40.7502 51.6794 41.1956C52.1248 41.641 52.375 42.2451 52.375 42.875V47.625H71.375C72.6348 47.625 73.843 48.1254 74.7338 49.0162C75.6246 49.907 76.125 51.1152 76.125 52.375V59.5C76.125 60.1299 75.8748 60.734 75.4294 61.1794C74.984 61.6248 74.3799 61.875 73.75 61.875Z" fill="#227699"/>
<path d="M59.5 40.5C58.8701 40.5 58.266 40.2498 57.8206 39.8044C57.3752 39.359 57.125 38.7549 57.125 38.125C57.125 37.46 55.035 36.0112 54.085 35.75H53.8238C52.843 35.5394 51.9391 35.0628 51.2113 34.3725C50.4301 34.5548 49.6174 34.5548 48.8363 34.3725C48.1084 35.0628 47.2046 35.5394 46.2238 35.75H46.0575C45.0363 36.13 43.0175 37.5788 42.9225 38.2437C42.9225 38.8736 42.6723 39.4777 42.2269 39.9231C41.7815 40.3685 41.1774 40.6187 40.5475 40.6187C39.9176 40.6187 39.3135 40.3685 38.8681 39.9231C38.4227 39.4777 38.1725 38.8736 38.1725 38.2437C38.1725 34.04 43.8013 31.4513 44.6325 31.1188C43.2844 28.9554 42.6682 26.4156 42.875 23.875C42.967 22.0151 43.7472 20.2558 45.064 18.939C46.3808 17.6222 48.1401 16.842 50 16.75C51.8599 16.842 53.6192 17.6222 54.936 18.939C56.2528 20.2558 57.033 22.0151 57.125 23.875C57.3061 26.376 56.6909 28.8701 55.3675 31C56.1988 31.2375 61.8275 33.8263 61.8275 38.125C61.8276 38.7467 61.5839 39.3437 61.1488 39.7878C60.7136 40.2319 60.1216 40.4876 59.5 40.5ZM50 21.5C49.3992 21.5825 48.8419 21.8592 48.4131 22.2881C47.9843 22.7169 47.7075 23.2742 47.625 23.875C47.4664 24.8502 47.5361 25.8489 47.8287 26.7926C48.1213 27.7363 48.6288 28.5993 49.3113 29.3138C49.4017 29.4042 49.5091 29.476 49.6272 29.525C49.7454 29.574 49.8721 29.5992 50 29.5992C50.1279 29.5992 50.2546 29.574 50.3728 29.525C50.491 29.476 50.5983 29.4042 50.6888 29.3138C51.3728 28.6004 51.8813 27.7375 52.174 26.7935C52.4667 25.8494 52.5355 24.8502 52.375 23.875C52.2925 23.2742 52.0158 22.7169 51.587 22.2881C51.1581 21.8592 50.6008 21.5825 50 21.5Z" fill="#227699"/>
<path d="M68.8575 75.3175C68.0542 73.7326 67.6932 71.9604 67.8125 70.1875C67.8713 68.6315 68.5157 67.1552 69.6167 66.0542C70.7177 64.9532 72.194 64.3088 73.75 64.25C75.306 64.3088 76.7823 64.9532 77.8833 66.0542C78.9843 67.1552 79.6287 68.6315 79.6875 70.1875C79.8049 71.9576 79.4526 73.7273 78.6662 75.3175C80.1625 76.125 83.25 77.93 83.25 80.875C83.25 81.5049 82.9998 82.109 82.5544 82.5544C82.109 82.9998 81.5049 83.25 80.875 83.25C80.2451 83.25 79.641 82.9998 79.1956 82.5544C78.7502 82.109 78.5 81.5049 78.5 80.875C77.9614 80.2009 77.2578 79.6774 76.4575 79.355C75.7437 79.2243 75.0694 78.9318 74.4862 78.5C74.2414 78.5234 73.9949 78.5234 73.75 78.5C73.4972 78.5235 73.2428 78.5235 72.99 78.5C72.4044 78.981 71.7122 79.3148 70.9712 79.4737C70.2081 79.8038 69.533 80.3081 69 80.9463C68.9953 81.2581 68.9293 81.5661 68.8056 81.8524C68.6819 82.1388 68.503 82.398 68.2792 82.6152C68.0553 82.8324 67.7909 83.0034 67.501 83.1185C67.211 83.2335 66.9013 83.2903 66.5894 83.2856C66.2775 83.2809 65.9696 83.2149 65.6832 83.0912C65.3969 82.9675 65.1377 82.7887 64.9204 82.5648C64.7032 82.341 64.5322 82.0765 64.4172 81.7866C64.3021 81.4966 64.2453 81.1869 64.25 80.875C64.25 77.93 67.3375 76.125 68.8575 75.3175ZM73.75 69C73.4573 69.0594 73.1886 69.2037 72.9774 69.4149C72.7662 69.6261 72.6219 69.8948 72.5625 70.1875C72.5625 71.9688 72.5625 72.8 73.655 73.845H73.75C74.795 72.8 74.8425 71.9688 74.8425 70.1875C74.7902 69.907 74.66 69.6468 74.4668 69.4368C74.2736 69.2268 74.0252 69.0754 73.75 69Z" fill="#227699"/>
<path d="M45.1075 75.3175C44.3042 73.7326 43.9432 71.9604 44.0625 70.1875C44.1213 68.6315 44.7657 67.1552 45.8667 66.0542C46.9677 64.9532 48.444 64.3088 50 64.25C51.556 64.3088 53.0323 64.9532 54.1333 66.0542C55.2343 67.1552 55.8787 68.6315 55.9375 70.1875C56.0549 71.9576 55.7026 73.7273 54.9162 75.3175C56.4125 76.125 59.5 77.93 59.5 80.875C59.5 81.5049 59.2498 82.109 58.8044 82.5544C58.359 82.9998 57.7549 83.25 57.125 83.25C56.4951 83.25 55.891 82.9998 55.4456 82.5544C55.0002 82.109 54.75 81.5049 54.75 80.875C54.2114 80.2009 53.5078 79.6774 52.7075 79.355C51.9749 79.1926 51.2913 78.8589 50.7125 78.3813C50.4676 78.4046 50.2211 78.4046 49.9762 78.3813C49.7235 78.4047 49.469 78.4047 49.2163 78.3813C48.6306 78.8622 47.9385 79.1961 47.1975 79.355C46.4344 79.6851 45.7592 80.1894 45.2262 80.8275C45.1736 81.4142 44.9048 81.9604 44.4721 82.36C44.0394 82.7596 43.4736 82.9842 42.8846 82.9901C42.2956 82.996 41.7254 82.7829 41.2848 82.392C40.8441 82.0012 40.5644 81.4605 40.5 80.875C40.5 77.93 43.5875 76.125 45.1075 75.3175ZM50 69C49.7073 69.0594 49.4386 69.2037 49.2274 69.4149C49.0162 69.6261 48.8719 69.8948 48.8125 70.1875C48.8125 71.9688 48.8125 72.8 49.905 73.845H50C51.045 72.8 51.0925 71.9688 51.0925 70.1875C51.0402 69.907 50.91 69.6468 50.7168 69.4368C50.5236 69.2268 50.2752 69.0754 50 69Z" fill="#227699"/>
<path d="M21.3575 75.3175C20.5542 73.7326 20.1932 71.9604 20.3125 70.1875C20.3125 68.6128 20.9381 67.1026 22.0516 65.9891C23.1651 64.8756 24.6753 64.25 26.25 64.25C27.8247 64.25 29.3349 64.8756 30.4484 65.9891C31.5619 67.1026 32.1875 68.6128 32.1875 70.1875C32.3049 71.9576 31.9526 73.7273 31.1662 75.3175C32.6625 76.125 35.75 77.93 35.75 80.875C35.75 81.5049 35.4998 82.109 35.0544 82.5544C34.609 82.9998 34.0049 83.25 33.375 83.25C32.7451 83.25 32.141 82.9998 31.6956 82.5544C31.2502 82.109 31 81.5049 31 80.875C30.4614 80.2009 29.7578 79.6774 28.9575 79.355C28.2249 79.1926 27.5413 78.8589 26.9625 78.3813C26.7176 78.4046 26.4711 78.4046 26.2262 78.3813C25.9735 78.4047 25.719 78.4047 25.4663 78.3813C24.8806 78.8622 24.1885 79.1961 23.4475 79.355C22.6844 79.6851 22.0092 80.1894 21.4762 80.8275C21.4236 81.4142 21.1548 81.9604 20.7221 82.36C20.2894 82.7596 19.7236 82.9842 19.1346 82.9901C18.5456 82.996 17.9754 82.7829 17.5348 82.392C17.0941 82.0012 16.8144 81.4605 16.75 80.875C16.75 77.93 19.8375 76.125 21.3575 75.3175ZM26.25 69C25.9573 69.0594 25.6886 69.2037 25.4774 69.4149C25.2662 69.6261 25.1219 69.8948 25.0625 70.1875C25.0625 71.9688 25.0625 72.8 26.155 73.845H26.25C27.295 72.8 27.3425 71.9688 27.3425 70.1875C27.2902 69.907 27.16 69.6468 26.9668 69.4368C26.7736 69.2268 26.5252 69.0754 26.25 69Z" fill="#227699"/>
</svg>
