<svg width="100" height="100" viewBox="0 0 100 100" fill="none" xmlns="http://www.w3.org/2000/svg">
<rect width="100" height="100" rx="50" fill="white"/>
<path d="M24.0341 46.8861L24.029 46.8811L39.4925 31.2764C40.5629 30.1961 41.99 29.5991 43.5109 29.5957C43.5154 29.5957 43.5198 29.5957 43.5243 29.5957C45.04 29.5957 46.465 30.1859 47.5374 31.2582L49.4265 33.1475C49.6331 33.3541 49.8745 33.385 49.9999 33.385C50.1253 33.385 50.3667 33.3541 50.5732 33.1475L52.4625 31.2581C53.5348 30.1859 54.9596 29.5958 56.4753 29.5958C56.4799 29.5958 56.4845 29.5958 56.4888 29.5958C58.0098 29.5992 59.4369 30.1962 60.5071 31.2765L75.9706 46.8811L75.9656 46.8861C78.4572 49.3814 80 52.8239 80 56.6203C80 64.2207 73.8166 70.4041 66.2162 70.4041C60.8318 70.4041 56.1616 67.299 53.8943 62.7871C52.7664 63.5019 51.4312 63.9177 49.9999 63.9177C48.5687 63.9177 47.2334 63.5019 46.1055 62.7871C43.8382 67.299 39.168 70.4041 33.7836 70.4041C26.1834 70.404 20 64.2206 20 56.6203C20 52.8239 21.5428 49.3814 24.0341 46.8861ZM66.2162 65.5392C71.1341 65.5392 75.1351 61.5382 75.1351 56.6203C75.1351 51.7024 71.1341 47.7014 66.2162 47.7014C61.2983 47.7014 57.2973 51.7024 57.2973 56.6203C57.2973 61.5382 61.2983 65.5392 66.2162 65.5392ZM50 59.8635C51.7912 59.8635 53.2433 58.4115 53.2433 56.6202C53.2433 54.8289 51.7913 53.3769 50 53.3769C48.2087 53.3769 46.7567 54.8289 46.7567 56.6202C46.7567 58.4115 48.2088 59.8635 50 59.8635ZM33.7838 65.5392C38.7017 65.5392 42.7027 61.5382 42.7027 56.6203C42.7027 51.7024 38.7017 47.7014 33.7838 47.7014C28.8659 47.7014 24.8649 51.7024 24.8649 56.6203C24.8649 61.5382 28.8659 65.5392 33.7838 65.5392Z" fill="#227699"/>
</svg>
