<svg width="100" height="100" viewBox="0 0 100 100" fill="none" xmlns="http://www.w3.org/2000/svg">
<rect width="100" height="100" rx="50" fill="white"/>
<path d="M52.1873 67.4998H56.5623C57.7227 67.4998 58.8355 67.9608 59.6559 68.7812C60.4764 69.6017 60.9373 70.7145 60.9373 71.8748H69.6873C70.2675 71.8748 70.8239 71.6444 71.2341 71.2341C71.6444 70.8239 71.8748 70.2675 71.8748 69.6873V64.0217L69.053 66.8655C68.8496 67.0705 68.6077 67.2332 68.3411 67.3443C68.0745 67.4553 67.7886 67.5125 67.4998 67.5125C67.2111 67.5125 66.9251 67.4553 66.6586 67.3443C66.392 67.2332 66.1501 67.0705 65.9467 66.8655C65.7417 66.6621 65.5789 66.4202 65.4679 66.1536C65.3568 65.887 65.2997 65.6011 65.2997 65.3123C65.2997 65.0236 65.3568 64.7376 65.4679 64.4711C65.5789 64.2045 65.7417 63.9626 65.9467 63.7592L72.5092 57.1967C72.7173 56.9976 72.9626 56.8414 73.2311 56.7373C73.7637 56.5185 74.361 56.5185 74.8936 56.7373C75.1621 56.8414 75.4074 56.9976 75.6155 57.1967L82.178 63.7592C82.5899 64.1711 82.8213 64.7298 82.8213 65.3123C82.8213 65.8949 82.5899 66.4535 82.178 66.8655C81.766 67.2774 81.2074 67.5088 80.6248 67.5088C80.0423 67.5088 79.4836 67.2774 79.0717 66.8655L76.2498 64.0217V69.6873C76.2498 71.4278 75.5584 73.097 74.3277 74.3277C73.097 75.5584 71.4278 76.2498 69.6873 76.2498H60.9373C60.9373 77.4102 60.4764 78.523 59.6559 79.3434C58.8355 80.1639 57.7227 80.6248 56.5623 80.6248H52.1873C51.027 80.6248 49.9142 80.1639 49.0937 79.3434C48.2733 78.523 47.8123 77.4102 47.8123 76.2498V71.8748C47.8123 70.7145 48.2733 69.6017 49.0937 68.7812C49.9142 67.9608 51.027 67.4998 52.1873 67.4998ZM52.1873 76.2498H56.5623V71.8748H52.1873V76.2498Z" fill="#227699"/>
<path d="M76.25 52.1877H71.875C70.7147 52.1877 69.6019 51.7267 68.7814 50.9063C67.9609 50.0858 67.5 48.973 67.5 47.8127V43.4377C67.5 42.2773 67.9609 41.1645 68.7814 40.3441C69.6019 39.5236 70.7147 39.0627 71.875 39.0627V30.3127C71.875 29.7325 71.6445 29.1761 71.2343 28.7659C70.8241 28.3556 70.2677 28.1252 69.6875 28.1252H64.0219L66.8656 30.947C67.0707 31.1504 67.2334 31.3923 67.3444 31.6589C67.4555 31.9255 67.5127 32.2114 67.5127 32.5002C67.5127 32.7889 67.4555 33.0749 67.3444 33.3414C67.2334 33.608 67.0707 33.8499 66.8656 34.0533C66.6623 34.2583 66.4203 34.4211 66.1538 34.5321C65.8872 34.6432 65.6013 34.7003 65.3125 34.7003C65.0237 34.7003 64.7378 34.6432 64.4712 34.5321C64.2047 34.4211 63.9627 34.2583 63.7594 34.0533L57.1969 27.4908C56.9977 27.2827 56.8416 27.0374 56.7375 26.7689C56.5187 26.2363 56.5187 25.639 56.7375 25.1064C56.8416 24.8379 56.9977 24.5926 57.1969 24.3845L63.7594 17.822C64.1713 17.4101 64.73 17.1787 65.3125 17.1787C65.895 17.1787 66.4537 17.4101 66.8656 17.822C67.2775 18.234 67.509 18.7926 67.509 19.3752C67.509 19.9577 67.2775 20.5164 66.8656 20.9283L64.0219 23.7502H69.6875C71.428 23.7502 73.0972 24.4416 74.3279 25.6723C75.5586 26.903 76.25 28.5722 76.25 30.3127V39.0627C77.4103 39.0627 78.5231 39.5236 79.3436 40.3441C80.1641 41.1645 80.625 42.2773 80.625 43.4377V47.8127C80.625 48.973 80.1641 50.0858 79.3436 50.9063C78.5231 51.7267 77.4103 52.1877 76.25 52.1877ZM76.25 43.4377H71.875V47.8127H76.25V43.4377Z" fill="#227699"/>
<path d="M23.7499 47.8125H28.1249C29.2852 47.8125 30.398 48.2734 31.2185 49.0939C32.039 49.9144 32.4999 51.0272 32.4999 52.1875V56.5625C32.4999 57.7228 32.039 58.8356 31.2185 59.6561C30.398 60.4766 29.2852 60.9375 28.1249 60.9375V69.6875C28.1249 70.2677 28.3554 70.8241 28.7656 71.2343C29.1759 71.6445 29.7323 71.875 30.3124 71.875H35.978L33.1343 69.0531C32.7224 68.6412 32.491 68.0825 32.491 67.5C32.491 66.9175 32.7224 66.3588 33.1343 65.9469C33.5462 65.535 34.1049 65.3036 34.6874 65.3036C35.27 65.3036 35.8286 65.535 36.2405 65.9469L42.803 72.5094C43.0022 72.7174 43.1583 72.9627 43.2624 73.2313C43.4812 73.7638 43.4812 74.3612 43.2624 74.8937C43.1583 75.1623 43.0022 75.4076 42.803 75.6156L36.2405 82.1781C36.0372 82.3832 35.7953 82.5459 35.5287 82.657C35.2621 82.768 34.9762 82.8252 34.6874 82.8252C34.3986 82.8252 34.1127 82.768 33.8462 82.657C33.5796 82.5459 33.3377 82.3832 33.1343 82.1781C32.9293 81.9748 32.7665 81.7328 32.6555 81.4663C32.5444 81.1997 32.4872 80.9138 32.4872 80.625C32.4872 80.3362 32.5444 80.0503 32.6555 79.7837C32.7665 79.5172 32.9293 79.2752 33.1343 79.0719L35.978 76.25H30.3124C28.5719 76.25 26.9027 75.5586 25.672 74.3279C24.4413 73.0972 23.7499 71.428 23.7499 69.6875V60.9375C22.5896 60.9375 21.4768 60.4766 20.6563 59.6561C19.8359 58.8356 19.3749 57.7228 19.3749 56.5625V52.1875C19.3749 51.0272 19.8359 49.9144 20.6563 49.0939C21.4768 48.2734 22.5896 47.8125 23.7499 47.8125ZM23.7499 56.5625H28.1249V52.1875H23.7499V56.5625Z" fill="#227699"/>
<path d="M17.8219 33.1344C18.0252 32.9293 18.2672 32.7666 18.5337 32.6556C18.8003 32.5445 19.0862 32.4873 19.375 32.4873C19.6638 32.4873 19.9497 32.5445 20.2163 32.6556C20.4828 32.7666 20.7248 32.9293 20.9281 33.1344L23.75 35.9781V30.3125C23.75 28.572 24.4414 26.9028 25.6721 25.6721C26.9028 24.4414 28.572 23.75 30.3125 23.75H39.0625C39.0625 22.5897 39.5234 21.4769 40.3439 20.6564C41.1644 19.8359 42.2772 19.375 43.4375 19.375H47.8125C48.9728 19.375 50.0856 19.8359 50.9061 20.6564C51.7266 21.4769 52.1875 22.5897 52.1875 23.75V28.125C52.1875 29.2853 51.7266 30.3981 50.9061 31.2186C50.0856 32.0391 48.9728 32.5 47.8125 32.5H43.4375C42.2772 32.5 41.1644 32.0391 40.3439 31.2186C39.5234 30.3981 39.0625 29.2853 39.0625 28.125H30.3125C29.7323 28.125 29.1759 28.3555 28.7657 28.7657C28.3555 29.1759 28.125 29.7323 28.125 30.3125V35.9781L30.9469 33.1344C31.3588 32.7225 31.9175 32.4911 32.5 32.4911C33.0825 32.4911 33.6412 32.7225 34.0531 33.1344C34.465 33.5463 34.6964 34.105 34.6964 34.6875C34.6964 35.27 34.465 35.8287 34.0531 36.2406L27.4906 42.8031C27.2826 43.0023 27.0373 43.1584 26.7687 43.2625C26.5069 43.3782 26.2238 43.438 25.9375 43.438C25.6512 43.438 25.3681 43.3782 25.1063 43.2625C24.8377 43.1584 24.5924 43.0023 24.3844 42.8031L17.8219 36.2406C17.6168 36.0373 17.4541 35.7953 17.343 35.5288C17.232 35.2622 17.1748 34.9763 17.1748 34.6875C17.1748 34.3987 17.232 34.1128 17.343 33.8462C17.4541 33.5797 17.6168 33.3377 17.8219 33.1344ZM43.4375 28.125H47.8125V23.75H43.4375V28.125Z" fill="#227699"/>
</svg>
