<svg width="100" height="100" viewBox="0 0 100 100" fill="none" xmlns="http://www.w3.org/2000/svg">
<rect width="100" height="100" rx="50" fill="white"/>
<path d="M48.7684 46.2567C51.0316 46.2567 52.8663 44.4213 52.8663 42.1572C52.8663 39.893 51.0316 38.0576 48.7684 38.0576C46.5051 38.0576 44.6704 39.893 44.6704 42.1572C44.6704 44.4213 46.5051 46.2567 48.7684 46.2567Z" stroke="#227699" stroke-width="2" stroke-miterlimit="10" stroke-linecap="round" stroke-linejoin="round"/>
<path d="M42.2314 55.7063V52.8161C42.2314 47.8966 45.223 46.2568 48.1325 46.2568H49.4438C52.3329 46.2568 55.3449 47.8966 55.3449 52.8161V55.7063" stroke="#227699" stroke-width="2" stroke-miterlimit="10" stroke-linecap="round" stroke-linejoin="round"/>
<path d="M31.9457 38.0986C31.8023 38.0781 31.6589 38.0576 31.5154 38.0576C29.2616 38.0576 27.438 39.9024 27.438 42.1572C27.438 43.838 28.4625 45.2933 29.8968 45.9287" stroke="#227699" stroke-width="2" stroke-miterlimit="10" stroke-linecap="round" stroke-linejoin="round"/>
<path d="M32.7656 46.0514C34.4253 45.5184 35.6342 44.0016 35.6342 42.1568C35.6342 41.0705 35.2039 40.1071 34.5277 39.3691" stroke="#227699" stroke-width="2" stroke-miterlimit="10" stroke-linecap="round" stroke-linejoin="round"/>
<path d="M38.1134 55.7063V52.8161C38.1134 48.2246 35.4703 46.4823 32.7656 46.2773" stroke="#227699" stroke-width="2" stroke-miterlimit="10" stroke-linecap="round" stroke-linejoin="round"/>
<path d="M29.897 46.3184C27.3563 46.6668 25 48.4501 25 52.8161V55.7063" stroke="#227699" stroke-width="2" stroke-miterlimit="10" stroke-linecap="round" stroke-linejoin="round"/>
<path d="M64.7704 46.0514C63.1107 45.5184 61.9019 44.0016 61.9019 42.1568C61.9019 41.0705 62.3321 40.1071 63.0083 39.3691" stroke="#227699" stroke-width="2" stroke-miterlimit="10" stroke-linecap="round" stroke-linejoin="round"/>
<path d="M59.4229 55.7063V52.8161C59.4229 48.2246 62.066 46.4823 64.7707 46.2773" stroke="#227699" stroke-width="2" stroke-miterlimit="10" stroke-linecap="round" stroke-linejoin="round"/>
<path d="M67.7417 46.257C67.7417 46.2364 67.7417 46.1953 67.7417 46.1748" stroke="#227699" stroke-width="2" stroke-miterlimit="10" stroke-linecap="round" stroke-linejoin="round"/>
<path d="M31.9464 38.0986C30.7375 40.4559 29.9999 43.1001 29.877 45.9287" stroke="#227699" stroke-width="2" stroke-miterlimit="10" stroke-linecap="round" stroke-linejoin="round"/>
<path d="M65.6309 38.2422C66.8398 40.6404 67.5364 43.3256 67.6184 46.1748" stroke="#227699" stroke-width="2" stroke-miterlimit="10" stroke-linecap="round" stroke-linejoin="round"/>
<path d="M31.9868 38.0984C35.1013 32.0106 41.4531 27.8291 48.7679 27.8291C56.1442 27.8291 62.537 32.0721 65.6309 38.2419" stroke="#227699" stroke-width="2" stroke-miterlimit="10" stroke-linecap="round" stroke-linejoin="round"/>
<path d="M29.917 46.3183C29.917 46.4413 29.917 46.5643 29.917 46.6873C29.917 57.1001 38.3588 65.5451 48.7675 65.5451C59.1763 65.5451 67.618 57.1001 67.618 46.6873C67.618 46.5438 67.6181 46.4003 67.5976 46.2568" stroke="#227699" stroke-width="2" stroke-miterlimit="10" stroke-linecap="round" stroke-linejoin="round"/>
<path d="M29.877 46.3182C29.877 46.1747 29.877 46.0517 29.8975 45.9082" stroke="#227699" stroke-width="2" stroke-miterlimit="10" stroke-linecap="round" stroke-linejoin="round"/>
<path d="M32.7456 46.2772C32.7456 46.1952 32.7456 46.1133 32.7661 46.0518" stroke="#227699" stroke-width="2" stroke-miterlimit="10" stroke-linecap="round" stroke-linejoin="round"/>
<path d="M60.4668 61.7529L70.0765 71.3253C71.2034 72.4526 73.027 72.4526 74.1539 71.3253C75.2809 70.1979 75.2809 68.3941 74.1539 67.2667L64.5443 57.6943" stroke="#227699" stroke-width="2" stroke-miterlimit="10" stroke-linecap="round" stroke-linejoin="round"/>
<path d="M65.5908 38.0986C65.7342 38.0781 65.8777 38.0576 66.0211 38.0576C68.275 38.0576 70.0986 39.9024 70.0986 42.1572C70.0986 43.838 69.0741 45.2933 67.6398 45.9287" stroke="#227699" stroke-width="2" stroke-miterlimit="10" stroke-linecap="round" stroke-linejoin="round"/>
<path d="M67.6392 46.3184C70.1799 46.6668 72.5362 48.4501 72.5362 52.8161V55.7063" stroke="#227699" stroke-width="2" stroke-miterlimit="10" stroke-linecap="round" stroke-linejoin="round"/>
</svg>
