<svg width="100" height="100" viewBox="0 0 100 100" fill="none" xmlns="http://www.w3.org/2000/svg">
<rect width="100" height="100" rx="50" fill="white"/>
<path d="M48.7688 46.2567C51.0321 46.2567 52.8668 44.4213 52.8668 42.1572C52.8668 39.893 51.0321 38.0576 48.7688 38.0576C46.5056 38.0576 44.6709 39.893 44.6709 42.1572C44.6709 44.4213 46.5056 46.2567 48.7688 46.2567Z" stroke="#227699" stroke-width="2" stroke-miterlimit="10" stroke-linecap="round" stroke-linejoin="round"/>
<path d="M42.2317 55.7063V52.8161C42.2317 47.8966 45.2232 46.2568 48.1327 46.2568H49.4441C52.3331 46.2568 55.3451 47.8966 55.3451 52.8161V55.7063" stroke="#227699" stroke-width="2" stroke-miterlimit="10" stroke-linecap="round" stroke-linejoin="round"/>
<path d="M31.9457 38.0986C31.8023 38.0781 31.6589 38.0576 31.5154 38.0576C29.2616 38.0576 27.438 39.9024 27.438 42.1572C27.438 43.838 28.4625 45.2933 29.8968 45.9287" stroke="#227699" stroke-width="2" stroke-miterlimit="10" stroke-linecap="round" stroke-linejoin="round"/>
<path d="M32.7659 46.0514C34.4255 45.5184 35.6344 44.0016 35.6344 42.1568C35.6344 41.0705 35.2041 40.1071 34.528 39.3691" stroke="#227699" stroke-width="2" stroke-miterlimit="10" stroke-linecap="round" stroke-linejoin="round"/>
<path d="M38.1137 55.7063V52.8161C38.1137 48.2246 35.4705 46.4823 32.7659 46.2773" stroke="#227699" stroke-width="2" stroke-miterlimit="10" stroke-linecap="round" stroke-linejoin="round"/>
<path d="M29.8973 46.3184C27.3566 46.6668 25.0002 48.4501 25.0002 52.8161V55.7063" stroke="#227699" stroke-width="2" stroke-miterlimit="10" stroke-linecap="round" stroke-linejoin="round"/>
<path d="M64.7707 46.0514C63.111 45.5184 61.9021 44.0016 61.9021 42.1568C61.9021 41.0705 62.3324 40.1071 63.0085 39.3691" stroke="#227699" stroke-width="2" stroke-miterlimit="10" stroke-linecap="round" stroke-linejoin="round"/>
<path d="M59.4231 55.7063V52.8161C59.4231 48.2246 62.0663 46.4823 64.7709 46.2773" stroke="#227699" stroke-width="2" stroke-miterlimit="10" stroke-linecap="round" stroke-linejoin="round"/>
<path d="M67.7419 46.257C67.7419 46.2364 67.7419 46.1953 67.7419 46.1748" stroke="#227699" stroke-width="2" stroke-miterlimit="10" stroke-linecap="round" stroke-linejoin="round"/>
<path d="M31.9467 38.0986C30.7378 40.4559 30.0001 43.1001 29.8772 45.9287" stroke="#227699" stroke-width="2" stroke-miterlimit="10" stroke-linecap="round" stroke-linejoin="round"/>
<path d="M65.6309 38.2422C66.8398 40.6404 67.5364 43.3256 67.6184 46.1748" stroke="#227699" stroke-width="2" stroke-miterlimit="10" stroke-linecap="round" stroke-linejoin="round"/>
<path d="M31.9871 38.0984C35.1015 32.0106 41.4533 27.8291 48.7681 27.8291C56.1444 27.8291 62.5372 32.0721 65.6311 38.2419" stroke="#227699" stroke-width="2" stroke-miterlimit="10" stroke-linecap="round" stroke-linejoin="round"/>
<path d="M29.9172 46.3183C29.9172 46.4413 29.9172 46.5643 29.9172 46.6873C29.9172 57.1001 38.359 65.5451 48.7678 65.5451C59.1765 65.5451 67.6183 57.1001 67.6183 46.6873C67.6183 46.5438 67.6183 46.4003 67.5978 46.2568" stroke="#227699" stroke-width="2" stroke-miterlimit="10" stroke-linecap="round" stroke-linejoin="round"/>
<path d="M29.8772 46.3182C29.8772 46.1747 29.8772 46.0517 29.8977 45.9082" stroke="#227699" stroke-width="2" stroke-miterlimit="10" stroke-linecap="round" stroke-linejoin="round"/>
<path d="M32.7458 46.2772C32.7458 46.1952 32.7459 46.1133 32.7664 46.0518" stroke="#227699" stroke-width="2" stroke-miterlimit="10" stroke-linecap="round" stroke-linejoin="round"/>
<path d="M60.4673 61.7529L70.077 71.3253C71.2039 72.4526 73.0275 72.4526 74.1544 71.3253C75.2814 70.1979 75.2814 68.3941 74.1544 67.2667L64.5447 57.6943" stroke="#227699" stroke-width="2" stroke-miterlimit="10" stroke-linecap="round" stroke-linejoin="round"/>
<path d="M65.5908 38.0986C65.7342 38.0781 65.8777 38.0576 66.0211 38.0576C68.275 38.0576 70.0986 39.9024 70.0986 42.1572C70.0986 43.838 69.0741 45.2933 67.6398 45.9287" stroke="#227699" stroke-width="2" stroke-miterlimit="10" stroke-linecap="round" stroke-linejoin="round"/>
<path d="M67.6394 46.3184C70.1801 46.6668 72.5364 48.4501 72.5364 52.8161V55.7063" stroke="#227699" stroke-width="2" stroke-miterlimit="10" stroke-linecap="round" stroke-linejoin="round"/>
</svg>
