<svg width="40" height="40" viewBox="0 0 40 40" fill="none" xmlns="http://www.w3.org/2000/svg">
<path d="M0 20C0 31.0457 8.95431 40 20 40C31.0457 40 40 31.0457 40 20C40 8.95431 31.0457 0 20 0C8.95431 0 0 8.95431 0 20Z" fill="white"/>
<path d="M15.5815 28H12.2643V17.3176H15.5815V28ZM13.9211 15.8604C12.8604 15.8604 12 14.9819 12 13.9211C12 13.4116 12.2024 12.923 12.5627 12.5627C12.923 12.2024 13.4116 12 13.9211 12C14.4306 12 14.9193 12.2024 15.2795 12.5627C15.6398 12.923 15.8422 13.4116 15.8422 13.9211C15.8422 14.9819 14.9815 15.8604 13.9211 15.8604ZM27.9968 28H24.6867V22.7999C24.6867 21.5606 24.6617 19.9712 22.962 19.9712C21.2373 19.9712 20.9731 21.3177 20.9731 22.7106V28H17.6594V17.3176H20.8409V18.7748H20.8873C21.3302 17.9355 22.412 17.0498 24.026 17.0498C27.3832 17.0498 28.0004 19.2605 28.0004 22.132V28H27.9968Z" fill="#121212"/>
</svg>
