<svg width="83" height="83" viewBox="0 0 83 83" fill="none" xmlns="http://www.w3.org/2000/svg">
<g filter="url(#filter0_d_25_5514)">
<circle cx="41.4615" cy="29.4615" r="21.4615" fill="url(#paint0_linear_25_5514)"/>
</g>
<g clip-path="url(#clip0_25_5514)">
<path d="M36.6917 27.136L32.5218 31.305C30.5943 33.2321 30.5943 36.3677 32.5218 38.2948L32.6259 38.3989C33.5597 39.3322 34.801 39.8464 36.1216 39.8464C37.4422 39.8464 38.6837 39.3322 39.6173 38.3989L43.6296 34.3876C43.3356 34.4301 43.0368 34.4519 42.7345 34.4519C41.9027 34.4519 41.0963 34.2881 40.3519 33.9759L37.8247 36.5025C37.3698 36.9573 36.7649 37.2078 36.1216 37.2078C35.4784 37.2078 34.8736 36.9574 34.4187 36.5027C33.9644 36.0485 33.7142 35.4439 33.7142 34.7999C33.7142 34.1561 33.9644 33.5513 34.4185 33.0971L38.4843 29.0324C38.9393 28.5775 39.5441 28.3271 40.1874 28.3271C40.8095 28.3271 41.3952 28.5618 41.8446 28.9885C41.8609 29.0018 41.8766 29.0159 41.8918 29.0311C42.117 29.2561 42.4161 29.38 42.7345 29.38C43.0526 29.38 43.352 29.2561 43.577 29.0311L44.4873 28.1211C44.2891 27.8032 44.055 27.5077 43.7872 27.2401L43.6833 27.1361C42.7495 26.2025 41.508 25.6885 40.1876 25.6885C38.867 25.6885 37.6255 26.2025 36.6917 27.136Z" fill="white"/>
<path d="M50.4009 27.6186C51.3331 26.6869 51.8464 25.4457 51.8464 24.1237C51.8464 22.8018 51.333 21.5606 50.4009 20.6288L50.297 20.5248C49.3632 19.5913 48.1217 19.0771 46.8011 19.0771C45.4807 19.0771 44.2392 19.5913 43.3054 20.5248L39.2931 24.536C39.5871 24.4935 39.8861 24.4716 40.1884 24.4716C41.02 24.4716 41.8264 24.6356 42.5708 24.9477L45.098 22.4211C45.5529 21.9663 46.1578 21.7158 46.8011 21.7158C47.4444 21.7158 48.0493 21.9661 48.5042 22.4211C48.9585 22.8752 49.2085 23.4799 49.2085 24.1237C49.2085 24.7676 48.9585 25.3723 48.5042 25.8263L44.4384 29.8912C43.9834 30.3461 43.3786 30.5965 42.7353 30.5965C42.1133 30.5965 41.5277 30.3618 41.0783 29.9351C41.062 29.9218 41.0461 29.9077 41.0309 29.8924C40.8059 29.6674 40.5066 29.5435 40.1884 29.5435C39.8701 29.5435 39.5709 29.6674 39.3459 29.8924L38.4355 30.8026C38.6336 31.1203 38.8677 31.4157 39.1354 31.6835L39.2396 31.7876C40.1733 32.7211 41.4147 33.2351 42.7353 33.2351C44.0558 33.2351 45.2974 32.7211 46.231 31.7876L50.4009 27.6186Z" fill="white"/>
</g>
<defs>
<filter id="filter0_d_25_5514" x="0" y="0" width="82.9231" height="82.9229" filterUnits="userSpaceOnUse" color-interpolation-filters="sRGB">
<feFlood flood-opacity="0" result="BackgroundImageFix"/>
<feColorMatrix in="SourceAlpha" type="matrix" values="0 0 0 0 0 0 0 0 0 0 0 0 0 0 0 0 0 0 127 0" result="hardAlpha"/>
<feOffset dy="12"/>
<feGaussianBlur stdDeviation="10"/>
<feComposite in2="hardAlpha" operator="out"/>
<feColorMatrix type="matrix" values="0 0 0 0 0.125417 0 0 0 0 0.716667 0 0 0 0 0.583286 0 0 0 0.2 0"/>
<feBlend mode="normal" in2="BackgroundImageFix" result="effect1_dropShadow_25_5514"/>
<feBlend mode="normal" in="SourceGraphic" in2="effect1_dropShadow_25_5514" result="shape"/>
</filter>
<linearGradient id="paint0_linear_25_5514" x1="31.0769" y1="12.1538" x2="55.3077" y2="47.1154" gradientUnits="userSpaceOnUse">
<stop stop-color="#3AF8CD"/>
<stop offset="1" stop-color="#00AC85"/>
</linearGradient>
<clipPath id="clip0_25_5514">
<rect width="20.7692" height="20.7692" fill="white" transform="translate(31.0762 19.0771)"/>
</clipPath>
</defs>
</svg>
