<svg width="24" height="24" viewBox="0 0 24 24" fill="none" xmlns="http://www.w3.org/2000/svg">
<path d="M16.0092 6.44894V2.99976C16.0092 2.44989 15.5695 2 15.0318 2H2.97738C2.43982 2 2 2.44989 2 2.99976V3.64961V16.6798V17.1299C2 17.4963 2.21177 17.8462 2.52127 18.0128L9.94939 21.9454C10.2752 22.112 10.6661 21.8789 10.6661 21.4955V17.6631H15.0318C15.5695 17.6631 16.0092 17.2134 16.0092 16.6633V11.198H14.0544V15.1637C14.0544 15.4469 13.8426 15.6636 13.5657 15.6636H10.6824V10.5315V7.28224V7.18226C10.6824 6.81568 10.4707 6.46576 10.1612 6.29914L5.77922 3.99969H13.5657C13.8426 3.99969 14.0544 4.2163 14.0544 4.49957V6.46576H16.0092V6.44894Z" fill="#64666C"/>
<path d="M18.5179 4.8162L21.6944 8.06543C22.1017 8.48199 22.1017 9.09851 21.6944 9.51508L18.5179 12.7643C18.1107 13.1809 17.4915 13.1977 17.0843 12.7811C16.6935 12.3814 16.7422 11.7147 17.117 11.3148L18.5504 9.86516H12.9957C12.719 9.86516 12.4419 9.74852 12.2627 9.53191C11.8066 9.03203 11.9206 8.14891 12.507 7.81565C12.6536 7.73234 12.8328 7.68235 12.9957 7.68235H18.5505C18.5505 7.68235 17.1335 6.2327 17.1172 6.2327C16.7424 5.84946 16.6935 5.16629 17.0844 4.78304C17.4754 4.38314 18.1107 4.39964 18.5179 4.8162Z" fill="#64666C"/>
</svg>
