<svg width="40" height="40" viewBox="0 0 40 40" fill="none" xmlns="http://www.w3.org/2000/svg">
<path d="M0 20C0 31.0457 8.95431 40 20 40C31.0457 40 40 31.0457 40 20C40 8.95431 31.0457 0 20 0C8.95431 0 0 8.95431 0 20Z" fill="white"/>
<path d="M20.5397 12C17.2506 12 14 14.1927 14 17.7414C14 19.9983 15.2695 21.2806 16.0388 21.2806C16.3562 21.2806 16.5389 20.3958 16.5389 20.1457C16.5389 19.8476 15.7792 19.2129 15.7792 17.9723C15.7792 15.3949 17.7411 13.5676 20.28 13.5676C22.4631 13.5676 24.0788 14.8082 24.0788 17.0875C24.0788 18.7897 23.396 21.9826 21.184 21.9826C20.3858 21.9826 19.703 21.4056 19.703 20.5785C19.703 19.3667 20.5493 18.1935 20.5493 16.9432C20.5493 14.821 17.5391 15.2057 17.5391 17.7703C17.5391 18.3089 17.6064 18.9051 17.8469 19.3956C17.4045 21.2998 16.5005 24.1369 16.5005 26.0988C16.5005 26.7046 16.587 27.3009 16.6447 27.9068C16.7537 28.0286 16.6992 28.0158 16.8659 27.9549C18.4816 25.7429 18.4239 25.3102 19.1548 22.4154C19.5491 23.1655 20.5685 23.5694 21.3764 23.5694C24.7808 23.5694 26.31 20.2515 26.31 17.2606C26.31 14.0773 23.5595 12 20.5397 12Z" fill="#121212"/>
</svg>
