<svg width="40" height="40" viewBox="0 0 40 40" fill="none" xmlns="http://www.w3.org/2000/svg">
<path d="M0 20C0 31.0457 8.95431 40 20 40C31.0457 40 40 31.0457 40 20C40 8.95431 31.0457 0 20 0C8.95431 0 0 8.95431 0 20Z" fill="white"/>
<path d="M27.6657 15.7602C27.4817 15.0674 26.9395 14.5217 26.2511 14.3365C25.0033 14 20 14 20 14C20 14 14.9967 14 13.7489 14.3365C13.0605 14.5217 12.5183 15.0674 12.3343 15.7602C12 17.0161 12 19.6364 12 19.6364C12 19.6364 12 22.2566 12.3343 23.5125C12.5183 24.2053 13.0605 24.7283 13.7489 24.9135C14.9967 25.25 20 25.25 20 25.25C20 25.25 25.0033 25.25 26.2511 24.9135C26.9395 24.7283 27.4817 24.2053 27.6657 23.5125C28 22.2566 28 19.6364 28 19.6364C28 19.6364 28 17.0161 27.6657 15.7602ZM18.3636 22.0154V17.2574L22.5454 19.6364L18.3636 22.0154Z" fill="#121212"/>
</svg>
