<svg width="40" height="40" viewBox="0 0 40 40" fill="none" xmlns="http://www.w3.org/2000/svg">
<path d="M0 20C0 31.0457 8.95431 40 20 40C31.0457 40 40 31.0457 40 20C40 8.95431 31.0457 0 20 0C8.95431 0 0 8.95431 0 20Z" fill="white"/>
<path d="M19.9981 17.6657C18.7128 17.6657 17.6638 18.7146 17.6638 20C17.6638 21.2854 18.7128 22.3343 19.9981 22.3343C21.2835 22.3343 22.3324 21.2854 22.3324 20C22.3324 18.7146 21.2835 17.6657 19.9981 17.6657ZM26.9992 20C26.9992 19.0333 27.008 18.0754 26.9537 17.1105C26.8994 15.9898 26.6437 14.9951 25.8242 14.1756C25.0029 13.3543 24.01 13.1003 22.8893 13.0461C21.9226 12.9918 20.9648 13.0005 19.9999 13.0005C19.0332 13.0005 18.0754 12.9918 17.1105 13.0461C15.9897 13.1003 14.9951 13.356 14.1755 14.1756C13.3543 14.9969 13.1003 15.9898 13.0461 17.1105C12.9918 18.0772 13.0005 19.0351 13.0005 20C13.0005 20.9649 12.9918 21.9246 13.0461 22.8895C13.1003 24.0102 13.356 25.0049 14.1755 25.8244C14.9968 26.6457 15.9897 26.8997 17.1105 26.9539C18.0771 27.0082 19.035 26.9995 19.9999 26.9995C20.9665 26.9995 21.9244 27.0082 22.8893 26.9539C24.01 26.8997 25.0047 26.644 25.8242 25.8244C26.6455 25.0031 26.8994 24.0102 26.9537 22.8895C27.0097 21.9246 26.9992 20.9667 26.9992 20ZM19.9981 23.5917C18.0106 23.5917 16.4065 21.9876 16.4065 20C16.4065 18.0124 18.0106 16.4083 19.9981 16.4083C21.9857 16.4083 23.5897 18.0124 23.5897 20C23.5897 21.9876 21.9857 23.5917 19.9981 23.5917ZM23.7368 17.1C23.2728 17.1 22.898 16.7253 22.898 16.2612C22.898 15.7972 23.2728 15.4224 23.7368 15.4224C24.2009 15.4224 24.5756 15.7972 24.5756 16.2612C24.5758 16.3714 24.5542 16.4806 24.5121 16.5824C24.47 16.6842 24.4082 16.7767 24.3303 16.8547C24.2523 16.9326 24.1598 16.9944 24.058 17.0365C23.9562 17.0786 23.847 17.1002 23.7368 17.1Z" fill="#121212"/>
</svg>
