<svg width="40" height="40" viewBox="0 0 40 40" fill="none" xmlns="http://www.w3.org/2000/svg">
<path d="M0 20C0 31.0457 8.95431 40 20 40C31.0457 40 40 31.0457 40 20C40 8.95431 31.0457 0 20 0C8.95431 0 0 8.95431 0 20Z" fill="white"/>
<path d="M26.3554 17.2386C26.3655 17.3807 26.3655 17.5229 26.3655 17.665C26.3655 22 23.066 26.995 17.0356 26.995C15.1777 26.995 13.4518 26.4569 12 25.5229C12.264 25.5533 12.5178 25.5635 12.7919 25.5635C14.3249 25.5635 15.736 25.0457 16.863 24.1625C15.4213 24.132 14.2132 23.1878 13.7969 21.8883C14 21.9188 14.203 21.9391 14.4163 21.9391C14.7107 21.9391 15.0051 21.8985 15.2792 21.8274C13.7767 21.5228 12.6497 20.2031 12.6497 18.6091V18.5685C13.0863 18.8122 13.5939 18.9645 14.1319 18.9848C13.2487 18.3959 12.67 17.3909 12.67 16.2538C12.67 15.6447 12.8324 15.0863 13.1167 14.599C14.7309 16.5888 17.1574 17.8883 19.8782 18.0305C19.8274 17.7868 19.7969 17.533 19.7969 17.2792C19.7969 15.4721 21.2589 14 23.0761 14C24.0203 14 24.8731 14.3959 25.4721 15.0355C26.2132 14.8934 26.9238 14.6193 27.5533 14.2437C27.3096 15.0051 26.7919 15.6447 26.1117 16.0508C26.7716 15.9797 27.4112 15.7969 28 15.5432C27.5534 16.1929 26.995 16.7715 26.3554 17.2386Z" fill="#121212"/>
</svg>
