<svg width="24" height="24" viewBox="0 0 24 24" fill="none" xmlns="http://www.w3.org/2000/svg">
<g clip-path="url(#clip0_151_780)">
<path d="M1.5015 20.9696C1.5015 20.3734 1.94925 20.1866 2.12775 20.1041L8.715 16.9954C9.1875 16.7786 9.513 16.3316 9.57675 15.8156C9.6405 15.2996 9.432 14.7881 9.027 14.4634C7.4685 13.2124 6.7425 10.4629 6.7425 8.99813V5.25038C6.7425 3.68288 9.471 1.50413 11.9955 1.50413C14.5425 1.50413 17.2432 3.64988 17.2432 5.25038V8.99888C17.2432 10.4419 16.6432 13.2019 15.0345 14.4679C14.6242 14.7904 14.4113 15.3041 14.4728 15.8231C14.5343 16.3421 14.8612 16.7914 15.336 17.0096L17.5837 18.0761L17.9543 16.5791L15.9615 15.6469C18.0397 14.0119 18.7425 10.7996 18.7425 8.99888V5.25113C18.7425 2.76863 15.306 0.00488281 11.994 0.00488281C8.682 0.00488281 5.241 2.76938 5.241 5.25113V8.99888C5.241 10.6369 5.98875 13.9504 8.08575 15.6334L1.4985 18.7421C1.4985 18.7421 0 19.4096 0 20.2414V22.4921C0 23.3209 0.67125 23.9914 1.4985 23.9914H17.9963V22.4914L1.49925 22.4921V20.9704L1.5015 20.9696ZM23.2485 19.4974H20.9985V17.2474C20.9985 16.8334 20.6625 16.4974 20.2485 16.4974C19.8345 16.4974 19.4985 16.8334 19.4985 17.2474V19.4974H17.2485C16.8345 19.4974 16.4985 19.8334 16.4985 20.2474C16.4985 20.6614 16.8345 20.9974 17.2485 20.9974H19.4985V23.2474C19.4985 23.6614 19.8345 23.9974 20.2485 23.9974C20.6625 23.9974 20.9985 23.6614 20.9985 23.2474V20.9974H23.2485C23.6625 20.9974 23.9985 20.6614 23.9985 20.2474C23.9985 19.8334 23.6625 19.4974 23.2485 19.4974Z" fill="#227699"/>
</g>
<defs>
<clipPath id="clip0_151_780">
<rect width="24" height="24" fill="white"/>
</clipPath>
</defs>
</svg>
