<svg width="572" height="425" viewBox="0 0 572 425" fill="none" xmlns="http://www.w3.org/2000/svg">
<path d="M90.0011 154.162C146.146 123.761 195.612 83.3738 255.764 59.8874C287.084 47.6583 319.754 39.2111 352.773 32.9954C355.577 32.4676 364.355 29.3006 367.245 31.5042C370.917 34.3038 366.775 39.1189 364.489 41.2228C351.99 52.7306 335.403 60.7922 320.886 69.585C301.256 81.4742 282.703 94.8828 262.613 106.067C236.156 120.796 210.961 137.075 185.687 153.601C175.96 159.961 166.247 166.395 157.47 173.945C151.498 179.083 144.362 184.322 141.095 191.539C140.069 193.805 138.571 197.024 138.921 199.583C139.173 201.419 147.617 198.802 147.741 198.776C170.378 194.015 192.702 186.88 213.574 177.041C238.938 165.086 262.307 149.185 286.626 135.406C309.532 122.428 333.26 110.484 357.861 100.799C372.916 94.8728 388.841 88.6596 404.823 85.5097C413.103 83.8777 421.496 82.7877 429.901 82.1167C435.816 81.6445 445.766 78.9894 445.725 87.0101C445.66 99.5656 436.817 108.998 426.894 116.447C405.348 132.621 378.826 144.963 353.854 155.235C331.75 164.327 308.551 171.118 285.938 178.879C251.935 190.55 218.928 203.934 186.312 218.878C162.003 230.016 138.514 242.79 114.61 254.711C90.4671 266.75 66.9321 279.276 44.6035 294.255C40.4324 297.054 31.2178 301.486 30.2669 307.055C29.3182 312.61 35.1928 314.427 39.8506 314.545C47.6548 314.743 55.4643 313.44 63.1417 312.248C92.0249 307.761 120.949 302.043 149.296 294.939C197.067 282.967 242.372 265.514 284.344 240.306C349.401 201.233 414.857 155.272 490.363 137.221C504.984 133.725 520.117 130.652 535.01 128.437C537.96 127.998 538.623 130.682 539.442 132.914C547.445 154.722 527.94 172.809 510.425 184.754C489.274 199.18 463.992 206.878 440.135 215.911C416.018 225.043 392.49 235.24 369.331 246.454C350.236 255.699 331.44 265.322 311.997 273.891C291.552 282.902 270.377 291.382 250.986 302.448C247.248 304.581 237.853 308.979 236.938 313.865C236.58 315.775 237.498 318.164 237.852 320.048C239.345 327.979 277.879 316.674 282.081 315.658C318.086 306.957 348.923 286.355 385.045 278.303C392.835 276.567 424.825 266.035 430.362 277.313C440.384 297.722 419.761 311.506 402.219 320.026C361.594 339.757 317.072 347.862 272.96 356.166C244.212 361.577 214.836 369.345 185.546 370.487C174.024 370.936 161.709 371.767 150.536 375.133C147.004 376.197 140.255 378.233 141.112 382.787C141.984 387.419 143.313 390.042 147.891 392.323C157.144 396.934 173.129 393.518 182.841 391.862C216.483 386.124 251.226 381.244 282.915 368.803" stroke="#FFB321" stroke-width="60" stroke-linecap="round"/>
</svg>
