<svg width="24" height="24" viewBox="0 0 24 24" fill="none" xmlns="http://www.w3.org/2000/svg">
<path d="M7.11111 8.94444H12M7.11111 13.2222H15.6667M12 23C18.0752 23 23 18.0752 23 12C23 5.92487 18.0752 1 12 1C5.92487 1 1 5.92487 1 12C1 13.4631 1.28568 14.8596 1.8043 16.1366C1.90355 16.3811 1.95319 16.5033 1.97533 16.602C1.99699 16.6986 2.00491 16.7701 2.00492 16.8692C2.00494 16.9704 1.98655 17.0807 1.9498 17.3013L1.22505 21.6497C1.14915 22.1051 1.1112 22.3328 1.18182 22.4974C1.24363 22.6415 1.35845 22.7564 1.50255 22.8181C1.6672 22.8888 1.89489 22.8509 2.35026 22.775L6.69879 22.0502C6.91933 22.0134 7.02959 21.9951 7.13083 21.9951C7.22985 21.9951 7.30136 22.003 7.39799 22.0247C7.49677 22.0468 7.61897 22.0964 7.86338 22.1957C9.14037 22.7144 10.5369 23 12 23Z" stroke="#227699" stroke-width="2" stroke-linecap="round" stroke-linejoin="round"/>
</svg>
