<svg width="36" height="36" viewBox="0 0 36 36" fill="none" xmlns="http://www.w3.org/2000/svg">
<path d="M26.43 16.1249C25.785 16.1249 25.275 15.5999 25.275 14.9699C25.275 14.4149 24.72 13.2599 23.79 12.2549C22.875 11.2799 21.87 10.7099 21.03 10.7099C20.385 10.7099 19.875 10.1849 19.875 9.5549C19.875 8.9249 20.4 8.3999 21.03 8.3999C22.53 8.3999 24.105 9.2099 25.485 10.6649C26.775 12.0299 27.6 13.7249 27.6 14.9549C27.6 15.5999 27.075 16.1249 26.43 16.1249Z" fill="#227699"/>
<path opacity="0.5" d="M31.8449 16.125C31.1999 16.125 30.6899 15.6 30.6899 14.97C30.6899 9.645 26.3549 5.325 21.0449 5.325C20.3999 5.325 19.8899 4.8 19.8899 4.17C19.8899 3.54 20.3999 3 21.0299 3C27.6299 3 32.9999 8.37 32.9999 14.97C32.9999 15.6 32.4749 16.125 31.8449 16.125Z" fill="#227699"/>
<path opacity="0.5" d="M17.685 21.315L12.78 26.22C12.24 25.74 11.715 25.245 11.205 24.735C9.66 23.175 8.265 21.54 7.02 19.83C5.79 18.12 4.8 16.41 4.08 14.715C3.36 13.005 3 11.37 3 9.81C3 8.79 3.18 7.815 3.54 6.915C3.9 6 4.47 5.16 5.265 4.41C6.225 3.465 7.275 3 8.385 3C8.805 3 9.225 3.09 9.6 3.27C9.99 3.45 10.335 3.72 10.605 4.11L14.085 9.015C14.355 9.39 14.55 9.735 14.685 10.065C14.82 10.38 14.895 10.695 14.895 10.98C14.895 11.34 14.79 11.7 14.58 12.045C14.385 12.39 14.1 12.75 13.74 13.11L12.6 14.295C12.435 14.46 12.36 14.655 12.36 14.895C12.36 15.015 12.375 15.12 12.405 15.24C12.45 15.36 12.495 15.45 12.525 15.54C12.795 16.035 13.26 16.68 13.92 17.46C14.595 18.24 15.315 19.035 16.095 19.83C16.635 20.355 17.16 20.865 17.685 21.315Z" fill="#227699"/>
<path d="M32.9549 27.4951C32.9549 27.9151 32.8799 28.3501 32.7299 28.7701C32.6849 28.8901 32.6399 29.0101 32.5799 29.1301C32.3249 29.6701 31.9949 30.1801 31.5599 30.6601C30.8249 31.4701 30.0149 32.0551 29.0999 32.4301C29.0849 32.4301 29.0699 32.4451 29.0549 32.4451C28.1699 32.8051 27.2099 33.0001 26.1749 33.0001C24.6449 33.0001 23.0099 32.6401 21.2849 31.9051C19.5599 31.1701 17.8349 30.1801 16.1249 28.9351C15.5399 28.5001 14.9549 28.0651 14.3999 27.6001L19.3049 22.6951C19.7249 23.0101 20.0999 23.2501 20.4149 23.4151C20.4899 23.4451 20.5799 23.4901 20.6849 23.5351C20.8049 23.5801 20.9249 23.5951 21.0599 23.5951C21.3149 23.5951 21.5099 23.5051 21.6749 23.3401L22.8149 22.2151C23.1899 21.8401 23.5499 21.5551 23.8949 21.3751C24.2399 21.1651 24.5849 21.0601 24.9599 21.0601C25.2449 21.0601 25.5449 21.1201 25.8749 21.2551C26.2049 21.3901 26.5499 21.5851 26.9249 21.8401L31.8899 25.3651C32.2799 25.6351 32.5499 25.9501 32.7149 26.3251C32.8649 26.7001 32.9549 27.0751 32.9549 27.4951Z" fill="#227699"/>
</svg>
