<svg width="36" height="36" viewBox="0 0 36 36" fill="none" xmlns="http://www.w3.org/2000/svg">
<path d="M26.43 16.1254C25.785 16.1254 25.275 15.6004 25.275 14.9704C25.275 14.4154 24.72 13.2604 23.79 12.2554C22.875 11.2804 21.87 10.7104 21.03 10.7104C20.385 10.7104 19.875 10.1854 19.875 9.55539C19.875 8.92539 20.4 8.40039 21.03 8.40039C22.53 8.40039 24.105 9.21039 25.485 10.6654C26.775 12.0304 27.6 13.7254 27.6 14.9554C27.6 15.6004 27.075 16.1254 26.43 16.1254Z" fill="#227699"/>
<path opacity="0.5" d="M31.8451 16.125C31.2001 16.125 30.6901 15.6 30.6901 14.97C30.6901 9.645 26.3551 5.325 21.0451 5.325C20.4001 5.325 19.8901 4.8 19.8901 4.17C19.8901 3.54 20.4001 3 21.0301 3C27.6301 3 33.0001 8.37 33.0001 14.97C33.0001 15.6 32.4751 16.125 31.8451 16.125Z" fill="#227699"/>
<path opacity="0.5" d="M17.685 21.315L12.78 26.22C12.24 25.74 11.715 25.245 11.205 24.735C9.66 23.175 8.265 21.54 7.02 19.83C5.79 18.12 4.8 16.41 4.08 14.715C3.36 13.005 3 11.37 3 9.81C3 8.79 3.18 7.815 3.54 6.915C3.9 6 4.47 5.16 5.265 4.41C6.225 3.465 7.275 3 8.385 3C8.805 3 9.225 3.09 9.6 3.27C9.99 3.45 10.335 3.72 10.605 4.11L14.085 9.015C14.355 9.39 14.55 9.735 14.685 10.065C14.82 10.38 14.895 10.695 14.895 10.98C14.895 11.34 14.79 11.7 14.58 12.045C14.385 12.39 14.1 12.75 13.74 13.11L12.6 14.295C12.435 14.46 12.36 14.655 12.36 14.895C12.36 15.015 12.375 15.12 12.405 15.24C12.45 15.36 12.495 15.45 12.525 15.54C12.795 16.035 13.26 16.68 13.92 17.46C14.595 18.24 15.315 19.035 16.095 19.83C16.635 20.355 17.16 20.865 17.685 21.315Z" fill="#227699"/>
<path d="M32.9549 27.4946C32.9549 27.9146 32.8799 28.3496 32.7299 28.7696C32.6849 28.8896 32.6399 29.0096 32.5799 29.1296C32.3249 29.6696 31.9949 30.1796 31.5599 30.6596C30.8249 31.4696 30.0149 32.0546 29.0999 32.4296C29.0849 32.4296 29.0699 32.4446 29.0549 32.4446C28.1699 32.8046 27.2099 32.9996 26.1749 32.9996C24.6449 32.9996 23.0099 32.6396 21.2849 31.9046C19.5599 31.1696 17.8349 30.1796 16.1249 28.9346C15.5399 28.4996 14.9549 28.0646 14.3999 27.5996L19.3049 22.6946C19.7249 23.0096 20.0999 23.2496 20.4149 23.4146C20.4899 23.4446 20.5799 23.4896 20.6849 23.5346C20.8049 23.5796 20.9249 23.5946 21.0599 23.5946C21.3149 23.5946 21.5099 23.5046 21.6749 23.3396L22.8149 22.2146C23.1899 21.8396 23.5499 21.5546 23.8949 21.3746C24.2399 21.1646 24.5849 21.0596 24.9599 21.0596C25.2449 21.0596 25.5449 21.1196 25.8749 21.2546C26.2049 21.3896 26.5499 21.5846 26.9249 21.8396L31.8899 25.3646C32.2799 25.6346 32.5499 25.9496 32.7149 26.3246C32.8649 26.6996 32.9549 27.0746 32.9549 27.4946Z" fill="#227699"/>
</svg>
